<svg width="700" height="700" viewBox="0 0 700 700" fill="none" xmlns="http://www.w3.org/2000/svg">
<path d="M231.762 70.9281C236.073 68.9464 242.688 67.8126 247.308 66.9598C284.515 60.0928 322.613 73.7642 354.087 92.9301C358.175 95.4194 366.439 100.601 370.597 102.272C372.697 103.677 374.51 104.864 376.693 106.138C386.519 112.262 393.938 117.598 404.192 123.134C406.209 123.6 410.519 126.773 411.874 126.555C417.201 125.697 422.905 116.894 428.182 113.505C434.245 109.553 440.995 106.773 448.082 105.306C458.565 103.079 469.58 103.942 478.713 109.856C484.633 113.404 490.235 117.457 495.456 121.971C496.797 121.382 499.356 120.166 500.661 119.807C498.563 121.439 498.091 121.62 495.712 122.595C508.054 134.084 512.685 143.921 513.349 161.154C513.887 175.048 509.052 183.26 499.881 193.133C506.352 201.266 513.031 207.1 519.364 214.544C521.609 216.446 523.853 218.391 526.114 220.263C565.995 253.233 600.464 293.626 604.865 347.326C604.981 348.647 605.035 349.973 605.035 351.299C605.057 393.964 592.594 424.242 567.465 457.679C553.027 478.297 537.106 496.555 518.64 513.858C415.335 610.675 152.669 743.263 84.8586 538.992C73.5941 505.061 71.5016 476.436 70.2778 440.647C67.2216 351.278 89.5178 264.48 130.306 185.202C149.452 147.895 170.048 112.496 204.398 87.4148C213.215 80.9775 221.229 74.498 231.762 70.9281Z" fill="black"/>
<path d="M476.705 149.268C484.323 146.375 490.05 141.781 496.291 136.506C522.298 114.395 543.985 86.2191 558.295 55.1635C562.304 46.4654 568.911 29.0552 566.787 19.4865C565.936 15.6622 552.378 12.3987 548.106 13.3844C544.331 16.0376 534.479 49.2819 529.921 57.742C514.671 86.0513 496.857 104.987 472.774 125.492C472.089 126.66 470.251 128.817 469.335 129.96C472.344 136.172 474.81 142.631 476.705 149.268Z" fill="black"/>
<path d="M231.761 70.9281C236.072 68.9464 242.686 67.8126 247.306 66.9598C284.513 60.0928 322.611 73.7642 354.085 92.9301C358.173 95.4194 366.437 100.601 370.595 102.272C372.695 103.677 374.509 104.864 376.692 106.138C386.517 112.262 393.937 117.598 404.19 123.134C406.207 123.6 410.517 126.773 411.872 126.555C417.199 125.697 422.903 116.894 428.18 113.505C434.244 109.553 440.994 106.773 448.081 105.306C458.563 103.079 469.578 103.942 478.712 109.856C484.632 113.404 489.779 117.986 495 122.5C507.341 133.989 512.684 143.921 513.348 161.154C513.886 175.048 509.051 183.26 499.879 193.133C506.351 201.266 513.029 207.1 519.362 214.544C521.607 216.446 523.852 218.391 526.113 220.263C565.993 253.233 600.462 293.626 604.864 347.326C604.979 348.647 605.034 349.973 605.034 351.299L604.134 350.251C599.875 350.666 588.91 364.065 575.471 364.263C559.989 364.492 552.767 360.248 541.155 350.537C538.91 353.422 533.702 362.804 531.913 366.559C524.098 382.987 511.904 393.173 495.081 399.705C478.794 406.027 455.348 404.329 439.414 396.947C418.872 387.43 414.407 373.617 407.274 354.286C389.368 364.695 376.219 370.426 355.528 367.768C318.527 363.013 290.615 325.997 300.34 288.908C302.19 281.85 305.044 271.67 305.656 265.064L305.721 264.303C284.685 266.308 267.897 267.833 249.113 254.164C238.526 246.46 229.877 229.289 228.208 216.34C223.876 182.727 236.987 162.249 256.787 136.669C243.165 122.737 231.919 110.215 232.138 89.3449C232.203 83.1518 233.667 76.8962 231.761 70.9281Z" fill="#875C32"/>
<path d="M404.194 123.133C406.211 123.598 410.521 126.772 411.876 126.554C417.203 125.696 422.906 116.892 428.184 113.503C434.247 109.552 440.997 106.771 448.084 105.304C458.567 103.078 469.581 103.941 478.715 109.854C484.635 113.402 489.279 116.486 494.5 121C494.5 121 495.5 122 495.714 122.593C508.055 134.082 512.687 143.92 513.351 161.152C513.889 175.047 509.054 183.259 499.883 193.131C506.354 201.265 513.033 207.098 519.366 214.543C518.658 219.013 529.952 237.282 532.795 241.427C534.145 244.102 535.418 246.812 536.62 249.554C549.478 279.021 513.774 290.997 502.123 260.666C501.442 266.564 500.789 274.811 497.531 279.671C492.827 286.413 483.988 291.43 475.95 292.619C451.957 296.168 434.525 287.985 430.198 262.82C412.101 289.777 373.528 266.048 370.508 240.312C369.7 233.419 371.541 227.831 374.136 221.561C346.068 223.914 329.719 201.615 335.438 174.522C337.46 164.943 345.875 160.485 353.812 156.233C332.116 147.334 317.141 106.247 362.535 113.801C369.911 115.416 377.244 117.221 384.528 119.213C388.063 120.186 400.079 124.303 402.941 124.213C403.31 123.913 403.912 123.472 404.194 123.133Z" fill="#E03105"/>
<path d="M321.244 147.36C320.171 146.281 319.108 145.192 318.055 144.093C308.005 133.591 291.974 115.13 306.628 101.479C311.038 97.3708 315.61 96.6837 321.458 97.0135C325.137 97.2149 328.784 97.806 332.338 98.7773C337.257 100.085 362.567 109.452 365.066 112.284L364.595 113.214L362.532 113.8C317.138 106.246 332.114 147.334 353.809 156.232C345.872 160.485 337.457 164.943 335.435 174.521C329.716 201.614 346.065 223.914 374.133 221.56C371.538 227.83 369.697 233.418 370.505 240.311C373.525 266.047 412.098 289.776 430.195 262.819C434.522 287.984 451.954 296.167 475.947 292.618C483.985 291.429 492.824 286.413 497.528 279.67C500.786 274.81 501.439 266.563 502.12 260.666C513.771 290.996 549.475 279.02 536.617 249.554C535.415 246.811 534.142 244.101 532.792 241.427C532.781 240.504 531.903 237.833 531.656 236.2L532.249 236.119C542.055 247.458 554.244 266.287 560.253 280.019C563.897 288.359 558.799 299.393 549.113 301.216C534.197 304.021 525.603 298.244 513.518 290.767C513.074 293.265 512.174 296.754 511.323 299.119C507.493 309.941 499.495 318.781 489.11 323.67C479.2 328.254 462.117 329.35 451.853 325.327C436.06 319.137 426.867 307.181 420.192 292.308C408.175 301.893 391.986 305.367 377.512 299.374C364.923 294.164 354.81 284.886 349.441 272.258C344.288 260.139 346.294 250.83 351.116 239.032C347.788 238.682 344.769 237.902 341.482 237.371C306.8 231.769 292.572 192.95 306.759 163.155C309.934 156.486 315.54 152.31 321.244 147.36Z" fill="#E48423"/>
<path d="M216.681 136.665C228.436 136.135 229.51 142.128 225.491 151.254C219.584 164.674 211.255 171.741 197.833 176.964C181.115 182.396 190.608 163.389 194.175 156.62C199.248 146.993 206.061 139.808 216.681 136.665Z" fill="#E03105"/>
<path d="M181.943 248.11C193.07 246.303 194.001 254.745 192.116 263.152C189.208 276.114 182.393 285.599 171.431 292.862C168.349 294.419 166.84 294.681 163.449 295.475C159.907 277.456 163.894 256.675 181.943 248.11Z" fill="#E03105"/>
<path d="M262.678 308.942C268.408 308.765 269.567 309.679 272.696 314.391C274.007 330.476 267.974 347.553 255.017 357.62C253.031 358.655 252.558 359.079 250.341 359.081C242.855 355.934 247.195 332.609 248.942 326.603C251.177 318.924 255.556 312.695 262.678 308.942Z" fill="#E03105"/>
<path d="M157.199 463.743C158.337 463.71 159.95 463.65 161.044 463.887C162.78 464.25 164.301 465.291 165.268 466.776C166.334 468.445 166.585 470.541 166.427 472.478C165.13 488.278 155.967 499.747 143.017 507.864L137.211 510.668C132.963 492.141 138.301 471.392 157.199 463.743Z" fill="#E03105"/>
<path d="M364.373 389.677C372.853 388.754 380.747 390.853 376.016 400.978C370.494 412.799 361.586 419.407 349.739 423.952C336.442 426.219 333.94 420.378 339.943 409.415C345.428 399.398 353.546 392.951 364.373 389.677Z" fill="#E03105"/>
<path d="M371.617 522.59C380.964 523.44 380.541 530.306 378.181 537.462C373.62 551.297 364.802 558.612 352.255 565.017L347.175 566.916C345.384 549.206 351.033 525.669 371.617 522.59Z" fill="#E03105"/>
<path d="M273.022 548.215C283.471 547.524 284.293 553.89 282.078 562.522C279.125 574.03 269.602 584.611 259.592 590.67C257.204 591.712 252.092 593.293 251.175 589.336C247.626 574.014 259.177 554.559 273.022 548.215Z" fill="#E03105"/>
<path d="M535.958 410.411C545.628 410.344 546.764 417.773 545.491 425.441C543.268 438.835 535.097 448.717 524.571 456.664C523.1 457.557 521.964 458.105 520.405 458.844C516.855 458.038 516.975 453.199 516.948 450.24C516.8 435.485 522.683 418.229 535.958 410.411Z" fill="#E03105"/>
<path d="M182.865 545.483C195.571 544.693 194.464 554.275 191.111 563.094C186.871 574.251 178.406 582.016 167.654 586.851C165.375 587.773 162.707 588.382 160.308 589.019C159.841 573.384 167.923 552.211 182.865 545.483Z" fill="#E03105"/>
<path d="M444.863 444.59C451.975 444.081 457.387 446.839 454.991 454.787C451.016 467.974 440.197 476.036 427.654 480.35C424.454 481.118 422.792 481.601 419.526 481.683C414.659 479.208 419.952 469.505 421.718 466.015C426.531 456.507 434.534 447.99 444.863 444.59Z" fill="#E03105"/>
<path d="M256.691 439.508C263.788 438.944 265.447 442.742 264.563 449.245C262.424 464.986 253.217 474.916 241.085 484.092C239.956 484.871 239.712 484.877 238.432 485.294C231.175 482.007 237.496 461.575 239.801 456.3C243.332 448.216 248.507 442.758 256.691 439.508Z" fill="#E03105"/>
<path d="M151.992 360.02C157.715 361.716 157.757 369.29 156.872 374.137C154.471 387.295 142.174 397.521 130.395 402.465L128.367 402.451C121.835 397.421 130.066 380.105 133.406 374.69C137.909 367.388 143.516 362.012 151.992 360.02Z" fill="#E03105"/>
</svg>
