<svg width="700" height="700" viewBox="0 0 700 700" fill="none" xmlns="http://www.w3.org/2000/svg">
<path d="M474.962 116.98C482.638 115.401 488.124 112.539 495.415 109.931C502.83 107.278 511.29 104.504 518.91 102.53C536.152 98.0912 553.724 95.068 571.459 93.4899C578.628 92.9098 588.67 93.0816 594.97 92.3555C592.424 130.211 586.341 164.49 571.912 199.916C570.235 204.035 567.762 210.278 566.913 214.478C574.596 214.564 582.937 213.906 590.876 213.696C587.899 245.105 563.993 271.29 545.563 294.548C549.671 295.76 562.1 298.185 564.059 300.3C564.81 304.123 556.068 313.301 553.518 316.697C524.479 355.322 479.169 377.623 435.082 394.529C414.397 402.247 392.709 408.969 371.849 416.425C352.291 423.415 332.085 428.925 312.51 436.178C298.645 441.381 284.998 447.145 271.601 453.456C261.247 458.221 249.509 463.81 239.794 469.657C227.57 474.982 215.482 483.862 203.693 490.223C202.361 490.943 201.455 490.511 200.133 490.197C200.759 480.783 207.015 468.457 210.223 459.158C218.821 441.614 226.031 423.112 234.725 405.617C243.194 388.576 246.881 370.483 252.238 352.371C257.092 336.162 263.083 320.237 268.258 304.147C286.878 246.244 306.431 185.256 352.398 142.701C358.657 136.907 377.566 120.127 386.003 120.192C391.858 123.487 388.871 135.392 393.191 138.835C395.736 138.792 398.486 135.389 400.267 133.73C415.572 119.47 451.56 93.8179 473.235 93.8899C473.949 101.576 474.525 109.274 474.962 116.98Z" fill="#E48121"/>
<path d="M444.447 185.59C444.16 183.455 443.107 176.673 443.925 175.113C445.416 177.917 446.086 182.184 446.587 185.357C449.295 202.542 448.332 223.43 442.428 239.877C446.023 235.761 449.823 231.393 454.035 227.917C471.738 213.305 486.836 196.181 503.834 180.754L504.533 182.603C493.961 192.299 482.752 204.924 472.401 215.225C466.909 220.691 455.119 232.277 450.615 237.989C469.935 234.233 499.514 233.102 516.396 244.565L516.88 244.899C492.963 236.195 466.576 237.274 443.447 247.901C440.402 249.314 436.024 251.866 433.734 254.309C425.707 262.87 416.468 271.526 408.991 280.469C431.213 273.833 460.327 279.242 480.792 289.866C481.511 290.239 481.221 290.059 481.671 290.798L481.917 290.712C478.689 291.033 464.73 286.199 459.592 285.539C442.02 283.282 425.821 283.042 408.879 288.941C400.236 291.911 395.004 293.912 388.481 300.78C381.559 308.068 373.959 315.004 367.09 322.352C366.668 322.802 366.25 323.256 365.836 323.713C381.908 319.888 417.628 321.213 432.202 330.387C436.182 331.352 443.676 335.652 446.376 338.732C421.64 327.859 418.528 327.257 390.517 327.182C374.194 328.54 359.361 329.892 347.486 342.534C342.005 348.369 336.077 353.975 330.881 360.092C329.956 361.163 329.108 362.298 328.343 363.488C351.171 360.124 378.217 365.31 397.908 377.445L397.397 377.328C394.637 376.684 392.282 375.698 389.603 374.866C371.888 369.364 352.684 367.344 334.26 369.781C329.47 370.415 322.051 370.331 318.067 373.196C308.477 380.094 300.024 389.79 291.262 397.749C306.826 395.159 333.587 399.833 345.181 411.023C325.753 401.829 308.182 401.489 287.841 407.966C277.96 411.113 270.053 420.518 262.749 427.719C253.346 436.861 244.141 446.205 235.14 455.743C231.712 459.362 206.139 487.741 202.434 486.483C204.415 481.556 215.236 472.001 219.001 467.549C233.862 449.974 249.295 433.198 264.968 416.326C268.471 412.555 273.351 407.67 276.068 403.154C278.803 395.846 280.374 375.842 279.983 368.331C280.508 369.136 280.659 369.212 281.341 369.917C282.751 369.658 282.57 369.255 283.731 367.631C285.019 378.257 285.021 382.917 284.787 393.755C289.477 389.221 305.802 375.511 307.332 369.744C315.505 338.935 314.142 314.375 302.488 285.303C315.804 304.945 322.613 338.402 315.882 361.294C320.785 357.011 344.635 334.27 347.172 329.793C357.25 308.83 355.534 280.645 351.243 258.361C349.936 251.572 345.737 244.936 344.349 238.314L344.902 239.238C348.301 244.948 353.224 254.156 355.282 260.457C360.494 276.409 363.06 300.87 358.941 317.188C367.074 309.735 386.459 295.035 390.331 285.426C401.931 256.634 399.755 225.959 388.803 197.572C392.859 202.158 396.181 211.018 398.148 216.841C405.114 237.463 403.62 256.859 399.582 277.884C429.41 249.944 439.075 253.565 444.492 209.018C445.476 199.907 445.479 194.592 444.447 185.59Z" fill="#130E0E"/>
<path d="M390.518 327.181L386.59 326.737C396.776 325.664 411.196 326.461 421.449 328.187C425.415 328.854 429.853 331.694 432.203 330.386C436.183 331.351 443.677 335.651 446.377 338.73C421.641 327.858 418.529 327.255 390.518 327.181Z" fill="#12020C"/>
<path d="M272.457 338.656C278.333 347.637 281.797 357.138 283.731 367.631C282.57 369.255 282.751 369.658 281.341 369.917C280.659 369.212 280.508 369.137 279.983 368.331C279.641 358.943 275.268 347.823 272.457 338.656Z" fill="#130E0E"/>
<path d="M515.473 169.957L516.584 171.033C512.696 174.914 508.695 179.049 504.535 182.602L503.836 180.753C505.667 178.701 512.866 172.453 515.473 169.957Z" fill="#5A1E22"/>
<path d="M515.473 169.957C517.766 167.659 524.77 160.178 527.192 159.168C527.31 160.695 518.08 169.535 516.583 171.033L515.473 169.957Z" fill="#903F14"/>
<path d="M220.686 484.835C230.742 481.902 238.754 477.776 248.31 473.479C257.243 469.522 266.246 465.725 275.314 462.088C300.195 452.075 320.614 445.93 345.242 437.574C403.629 417.767 461.863 397.135 523.075 420.151C520.525 423.22 517.995 426.302 515.48 429.399C517.362 430.847 522.335 432.186 524.813 432.645C542.127 435.854 560.851 444.492 574.822 455.038C571.845 461.136 567.33 466.353 561.72 470.171C569.191 475.477 579.008 481.618 585.873 487.148C597.746 496.707 626.625 528.574 629.999 543.132C613.924 556.003 579.8 569.26 559.709 574.227C551.574 576.243 542.133 577.59 533.792 578.886C537.355 585.283 539.412 590.58 540.811 597.851C522.088 605.806 495.482 607.816 475.265 606.469C466.162 605.862 456.304 603.723 446.919 603.158C448.211 607.41 451.538 618.461 451.914 622.343C422.728 633.024 378.904 623.161 351.766 610.305C305.474 588.374 265.09 553.221 230.574 515.754C226.527 511.363 223.041 506.303 218.676 502.22C212.377 498.425 206.969 496.661 200.332 500.389C200.723 498.528 200.392 496.61 200.209 494.681L197.804 494.424C197.75 493.149 197.229 492.336 196.676 491.179C196.646 489.894 196.372 487.739 196.246 486.39C196.781 484.588 196.404 484.817 197.622 483.918C200.628 486.265 198.854 487.827 200.133 490.197C201.455 490.511 202.361 490.943 203.693 490.223C215.482 483.862 227.57 474.982 239.793 469.657C235.907 473.276 216.165 483.882 215.48 485.201C216.8 485.695 219.173 485.086 220.686 484.835ZM216.741 495.273L222.834 497.145C224.763 497.551 226.488 497.772 228.461 497.875C242.348 498.61 256.42 500.091 270.302 500.436C274.521 500.297 278.015 500.086 282.214 499.685C284.504 499.551 286.312 499.752 287.969 498.317C286.796 497.232 285.261 497.355 283.559 497.196C271.886 495.705 257.514 496.543 246.141 494.213L238.812 493.632C229.583 493.679 225.659 493.545 216.741 495.273Z" fill="#E48121"/>
<path d="M283.562 497.199C285.264 497.359 286.799 497.235 287.971 498.32C286.314 499.755 284.506 499.554 282.216 499.688L282.113 499.102L280.789 498.567L282.237 497.698L281.389 498.382C282.266 498.552 281.135 498.053 283.562 497.199Z" fill="#12020C" fill-opacity="0.0902"/>
<path d="M432.485 452.492C425.716 470.426 411.802 484.563 398.751 497.903C407.044 498.279 417.646 499.883 425.731 499.456C435.851 498.926 450.466 487.937 458.363 481.6C462.805 478.037 466.983 469.117 470.11 466.707C470.267 470.348 461.886 481.167 459.406 484.038C453.52 490.853 444.458 495.975 438.406 501.755C451.45 502.521 464.418 506.717 477.65 504.403C480.705 503.868 483.418 502.351 486.29 501.57C487.399 502.377 487.77 502.824 489.137 502.865C487.194 504.274 484.886 505.822 483.241 507.509C497.323 511.535 516.344 514.369 531.283 517.372L531.375 518.606C530.275 518.95 529.699 518.94 528.573 519.017C513.85 516.472 499.894 513.932 484.932 513.001C494.397 525.219 503.082 535.977 507.633 551.069C504.584 546.189 501.319 539.818 498.238 535.442C491.158 525.389 478.167 512.507 465.852 510.162C458.521 508.764 449.348 507.843 441.841 507.149C446.553 513.541 451.457 519.722 455.441 526.571C453.964 527.697 453.867 527.821 452.136 528.397C432.964 504.357 427.96 505.534 398.573 503.801C403.726 511.741 416.826 530.407 418.027 538.537C417.597 539.627 417.687 539.715 416.768 540.394C415.855 540.265 416.238 540.419 415.586 540.034L415.228 540.486L414.841 539.915C413.222 537.478 410.895 532.115 409.386 529.955C405.024 523.717 388.555 504.943 381.424 503.853C372.114 502.433 360.514 504.331 350.199 502.161C360.638 511.983 371.882 531.287 375.168 545.135L374.571 545.191C373.884 545.243 373.628 545.253 372.961 545.227L372.471 546.189C371.121 544.436 368.154 537.463 366.656 535.066C361.406 526.679 346.12 508.069 338.153 503.323C327.268 502.367 318.379 503.74 307.012 501.6C314.249 508.8 319.626 515.598 323.956 524.915C322.443 525.779 322.063 525.872 321.05 527.219C315.815 520.55 300.795 503.405 292.435 502.099C286.891 501.23 276.934 501.441 270.83 500.521L270.303 500.438C274.521 500.299 278.015 500.089 282.214 499.687C284.504 499.554 286.312 499.754 287.969 498.32C286.796 497.235 285.261 497.358 283.559 497.199C271.886 495.707 257.514 496.546 246.141 494.216C254.586 494.052 264.529 494.987 273.121 495.281C279.824 495.512 288.305 495.121 294.723 495.702C303.243 489.099 312.029 482.944 320.521 476.423C325.95 472.254 330.971 464.732 336.374 459.942C331.494 469.725 327.476 476.289 319.903 484.42C317.123 487.408 311.807 492.375 309.464 495.301C317.773 495.502 332.748 495.44 340.426 496.53C346.767 489.084 355.216 485.153 362.682 479.04C371.361 471.935 375.722 463.133 381.454 454.001C378.095 466.065 372.919 475.802 364.439 485.185C361.249 488.714 356.488 493.008 353.617 496.489C371.988 497.019 379.794 499.97 395.515 489.814C411.993 479.173 421.835 468.679 432.485 452.492Z" fill="#201819"/>
<path d="M200.133 490.2C201.455 490.514 202.361 490.946 203.693 490.226C215.482 483.865 227.57 474.985 239.793 469.66C235.907 473.279 216.165 483.885 215.48 485.204C216.8 485.698 219.173 485.089 220.686 484.838C214.772 487.125 212.64 488.066 207.306 491.825C214.81 492.067 231.681 492.262 238.812 493.635C229.583 493.682 225.659 493.548 216.741 495.276L222.834 497.148L221.438 497.271L221.014 497.41C219.127 498.012 218.295 498.161 216.348 498.49C216.616 500.331 217.783 500.336 218.676 502.223C212.377 498.428 206.969 496.664 200.332 500.392C200.723 498.531 200.392 496.613 200.209 494.684L197.804 494.427C197.75 493.152 197.229 492.34 196.676 491.183C196.646 489.897 196.372 487.742 196.246 486.393C196.781 484.591 196.404 484.82 197.622 483.921C200.628 486.268 198.854 487.83 200.133 490.2Z" fill="#130E0E"/>
<path d="M200.211 494.684C205.951 495.306 216.199 496.072 221.44 497.27L221.016 497.409C219.129 498.011 218.297 498.16 216.35 498.489C216.618 500.33 217.786 500.335 218.678 502.222C212.379 498.427 206.971 496.663 200.334 500.392C200.726 498.53 200.394 496.612 200.211 494.684Z" fill="#B9824B"/>
<path d="M455.442 526.57C460.92 536.999 463.992 543.817 464.702 555.892C460.375 543.905 459.463 539.524 452.137 528.396C453.868 527.82 453.965 527.696 455.442 526.57Z" fill="#130E0E"/>
<path d="M321.051 527.218C322.064 525.871 322.444 525.778 323.957 524.914C327.857 533.003 330.301 539.261 331.533 548.347C328.285 541.565 325.128 533.281 321.051 527.218Z" fill="#130E0E"/>
<path d="M510.984 484.555C505.724 492.652 497.172 497.861 489.14 502.864C487.773 502.823 487.402 502.376 486.293 501.568C496.251 496.092 502.237 491.85 510.984 484.555Z" fill="#12020C"/>
<path d="M415.23 540.484L415.588 540.031C416.24 540.417 415.857 540.263 416.77 540.391C417.69 539.713 417.599 539.625 418.029 538.535C420.297 545.482 421.329 551.257 421.459 558.58C419.125 552.851 417.287 546.408 415.23 540.484Z" fill="#130E0E"/>
<path d="M531.284 517.371C536.128 518.405 543.939 519.814 548.485 521.12L544.916 521.747C541.322 520.842 532.796 519.762 528.574 519.017C529.7 518.94 530.276 518.95 531.377 518.605L531.284 517.371Z" fill="#5A1E22"/>
<path d="M375.169 545.133C376.45 549.236 377.439 553.453 377.867 557.737C375.805 553.669 374.233 550.388 372.473 546.187L372.963 545.225C373.63 545.251 373.885 545.241 374.573 545.189L375.169 545.133Z" fill="#130E0E"/>
<path d="M548.483 521.121C551.301 521.234 557.559 522.607 560.115 523.81C557.543 524.098 547.927 522.309 544.914 521.748L548.483 521.121Z" fill="#903F14"/>
<path d="M114.831 169.059C111.246 144.604 127.722 108.197 138.806 86.4938C146.706 71.0243 146.365 69.3412 160.795 78.9629C184.052 94.472 198.148 116.924 216.724 136.583C220.485 133.768 223.213 129.737 226.755 126.287C227.056 126.453 227.355 126.624 227.651 126.799C232.828 129.892 235.74 134.541 239.084 139.33C248.937 153.442 252.838 165.149 256.958 181.627C261.24 179.439 270.617 173.034 272.367 181.312C275.983 198.409 280.604 216.757 278.791 234.354C277.928 243.92 274.746 252.963 272.505 262.164C267.468 282.839 259.472 301.926 252.488 321.888L217.029 424.604C213.139 435.877 208.712 446.718 205.925 458.35C205.228 461.257 203.126 463.368 202.623 466.679C201.747 470.604 199.879 476.169 199.408 479.785L199.71 481.378C198.424 482.53 198.801 482.157 196.534 482.174L196.166 481.662L195.767 482.275C195.881 483.295 196.058 485.487 196.247 486.392C196.373 487.741 196.648 489.896 196.678 491.181C189.805 479.42 168.421 460.111 157.96 449.17C124.666 414.353 98.5567 376.958 80.9182 331.881C72.7667 311.165 69.1079 288.953 70.1837 266.717C70.341 263.387 70.5318 257.354 71.7922 254.475C74.4903 252.297 86.2178 254.811 91.663 254.226L92.3597 254.146C84.9631 226.537 82.3148 201.847 90.5882 174.058C91.591 170.689 91.194 166.547 93.7013 163.834C98.0116 162.126 109.142 167.399 114.831 169.059ZM192.757 448.587C193.115 454.855 194.251 462.419 194.46 468.212C195.297 468.606 194.996 468.488 195.952 468.569C197.499 467.304 197.006 467.777 197.734 465.62C197.046 450.433 198.133 435.702 197.135 420.552C197.005 418.589 196.996 416.512 196.939 414.539C193.721 419.181 196.456 436.74 193.864 442.91C193.286 444.284 193.696 446.423 192.757 448.587Z" fill="#E48121"/>
<path d="M196.94 414.539C196.996 416.512 197.005 418.589 197.135 420.552C198.134 435.703 197.046 450.434 197.734 465.621C197.007 467.778 197.499 467.304 195.952 468.569C194.996 468.489 195.297 468.606 194.46 468.213C194.251 462.42 193.116 454.855 192.758 448.588C193.696 446.423 193.286 444.285 193.864 442.91C196.456 436.74 193.721 419.181 196.94 414.539Z" fill="#130E0E" fill-opacity="0.98431"/>
<path d="M169.9 174.996L171.613 175.455C173.36 183.003 175.027 190.57 176.613 198.154C178.029 205.059 179.59 214.515 182.169 220.877C185.847 212.651 188.099 207.881 193.823 200.68L195.333 201.757C181.703 219.628 183.539 231.96 187.465 252.865C187.846 254.894 188.306 260.989 189.336 262.052C190.273 261.825 190.213 261.859 190.865 261.149L191.447 262.378C193.237 261.183 193.008 259.833 195.215 259.262C194.191 261.718 190.907 269.722 190.979 271.746C191.221 278.596 192.179 301.638 193.466 307.308C194.677 307.161 194.08 307.362 195.136 306.141C196.64 307.091 196.872 307.146 198.63 307.456C192.377 319.197 195.806 335.452 196.025 348.425C206.849 335.911 221.545 319.312 237.605 313.652C225.206 324.853 215.856 330.545 205.512 344.767C192.246 363.005 197.908 368.772 197.729 388.991C208.253 376.867 218.074 367.744 233.231 361.561C227.893 366.252 221.226 370.824 216.114 375.459C209.55 381.411 193.465 405.96 196.938 414.54C193.72 419.181 196.455 436.741 193.863 442.91C193.285 444.285 193.695 446.424 192.756 448.588C191.817 440.736 192.002 413.89 189.683 408.061C182.461 389.912 159.948 376.483 144.072 368.207C164.003 371.621 176.005 382.784 189.374 396.685C190.052 387.012 190.594 372.47 187.14 363.506C180.026 345.042 157.11 330.924 140.168 322.86C158.648 325.777 174.699 337.618 187.309 350.935C187.29 342.741 187.428 334.326 187.299 326.121C187.087 312.587 182.196 310.092 172.731 301.138L173.01 300.687L172.69 299.731C166.834 293.959 152.393 285.919 144.682 282.286L145.743 281.612C153.59 283.263 169.078 292.621 175.186 297.991L175.494 296.987C178.868 299.096 182.691 302.577 185.787 305.217C185.316 295.887 184.767 274.26 179.996 267.243C178.83 265.527 172.55 259.29 170.601 257.164C169.415 253.704 169.345 255.549 169.379 251.148C173.684 254.149 177.747 257.7 181.778 261.083C179.77 239.597 184.106 231.453 166.95 215.863L168.51 212.407L176.263 218.798C176.429 203.383 172.752 190.122 169.9 174.996Z" fill="url(#paint0_linear_4473_807)"/>
<path d="M235.186 266.301L234.835 266.677C231.376 270.336 226.645 273.448 223.171 276.811C215.219 284.51 203.896 297.84 198.631 307.457C196.873 307.147 196.641 307.092 195.137 306.142C203.309 289.895 219.322 274.984 235.186 266.301Z" fill="#130E0E"/>
<path d="M135.199 233.391C148.737 238.462 157.728 242.904 169.38 251.146C169.346 255.548 169.416 253.702 170.602 257.163C165.65 253.425 162.583 250.534 157.051 247.029C149.922 242.513 141.906 238.276 135.199 233.391Z" fill="url(#paint1_linear_4473_807)"/>
<path d="M190.867 261.147C194.766 254.061 198.157 247.775 203.625 241.698C206.058 238.994 218.073 228.755 220.881 228.641C209.023 238.775 202.304 245.15 195.218 259.261C193.011 259.832 193.239 261.182 191.45 262.377L190.867 261.147Z" fill="#201819"/>
<path d="M133.34 277.328C145.29 278.867 166.917 288.613 175.494 296.986L175.187 297.99C169.078 292.62 153.591 283.261 145.743 281.611L144.683 282.284C152.393 285.918 166.835 293.958 172.691 299.729L173.01 300.685L172.731 301.137C159.579 290.32 148.316 284.961 133.34 277.328Z" fill="#12020C"/>
<path d="M166.951 215.863C157.439 207.317 151.816 202.928 141.531 195.648C152.508 199.873 159.526 205.125 168.511 212.407L166.951 215.863Z" fill="#12020C"/>
<path d="M197.735 465.621C197.874 468.061 198.05 477.706 198.518 479.293L199.409 479.785L199.711 481.379C198.425 482.53 198.802 482.158 196.535 482.175L196.167 481.662L195.768 482.276C195.235 480.843 194.672 470.537 194.461 468.213C195.298 468.606 194.997 468.489 195.953 468.57C197.5 467.305 197.007 467.778 197.735 465.621Z" fill="#201819"/>
<path d="M205.034 188.945C202.054 193.295 198.854 197.827 195.334 201.757L193.824 200.68C196.604 196.764 201.24 191.931 205.034 188.945Z" fill="#5A1E22"/>
<path d="M167.968 164.7C167.637 163.113 164.987 148.203 165.097 147.988C167.151 150.94 168.519 159.591 169.37 163.506L167.968 164.7Z" fill="#903F14"/>
<path d="M167.969 164.702L169.371 163.508L171.616 175.455L169.902 174.997L167.969 164.702Z" fill="#5A1E22"/>
<path d="M197.806 494.426L200.211 494.683C200.394 496.611 200.726 498.529 200.334 500.391C198.504 503.543 191.362 511.256 188.723 514.368C172.629 533.024 159.818 554.282 146.492 574.871C136.539 590.252 124.201 618.493 108.56 627.852L107.551 627.6C105.351 622.515 121.631 594.407 125.227 588.319C139.366 564.386 155.682 541.802 173.968 520.867C179.194 514.83 185.406 509.035 190.758 503.024C193.375 500.082 195.311 497.383 197.806 494.426Z" fill="#E48121"/>
<path d="M202.621 466.68C205.054 463.785 206.563 463.86 210.223 459.16C207.015 468.459 200.758 480.785 200.132 490.199C198.854 487.829 200.628 486.267 197.622 483.92C196.404 484.819 196.781 484.59 196.246 486.392C196.057 485.487 195.88 483.295 195.766 482.276L196.164 481.662L196.533 482.174C198.8 482.157 198.423 482.53 199.708 481.379L199.407 479.785C199.877 476.169 201.745 470.604 202.621 466.68Z" fill="#130E0E" fill-opacity="0.98824"/>
<defs>
<linearGradient id="paint0_linear_4473_807" x1="144.336" y1="302.563" x2="233.625" y2="303.435" gradientUnits="userSpaceOnUse">
<stop stop-color="#0E0A0E"/>
<stop offset="1" stop-color="#27211B"/>
</linearGradient>
<linearGradient id="paint1_linear_4473_807" x1="152.287" y1="245.273" x2="154.815" y2="241.78" gradientUnits="userSpaceOnUse">
<stop stop-color="#22020C"/>
<stop offset="1"/>
</linearGradient>
</defs>
</svg>
