<svg width="700" height="700" viewBox="0 0 700 700" fill="none" xmlns="http://www.w3.org/2000/svg">
<path d="M231.762 70.9281C236.073 68.9464 242.688 67.8126 247.308 66.9598C284.515 60.0928 322.613 73.7642 354.087 92.9301C358.175 95.4194 366.439 100.601 370.597 102.272C372.697 103.677 374.51 104.864 376.693 106.138C386.519 112.262 393.938 117.598 404.192 123.134C406.209 123.6 410.519 126.773 411.874 126.555C417.201 125.697 422.905 116.894 428.182 113.505C434.245 109.553 440.995 106.773 448.082 105.306C458.565 103.079 469.58 103.942 478.713 109.856C484.633 113.404 490.235 117.457 495.456 121.971C496.797 121.382 499.356 120.166 500.661 119.807C498.563 121.439 498.091 121.62 495.712 122.595C508.054 134.084 512.685 143.921 513.349 161.154C513.887 175.048 509.052 183.26 499.881 193.133C506.352 201.266 513.031 207.1 519.364 214.544C521.609 216.446 523.853 218.391 526.114 220.263C565.995 253.233 600.464 293.626 604.865 347.326C604.981 348.647 605.035 349.973 605.035 351.299C605.057 393.964 592.594 424.242 567.465 457.679C553.027 478.297 537.106 496.555 518.64 513.858C415.335 610.675 152.669 743.263 84.8586 538.992C73.5941 505.061 71.5016 476.436 70.2778 440.647C67.2216 351.278 89.5178 264.48 130.306 185.202C149.452 147.895 170.048 112.496 204.398 87.4148C213.215 80.9775 221.229 74.498 231.762 70.9281Z" fill="#E03105"/>
<path d="M231.761 70.9281C236.072 68.9464 242.686 67.8126 247.306 66.9598C284.513 60.0928 322.611 73.7642 354.085 92.9301C358.173 95.4194 366.437 100.601 370.595 102.272C372.695 103.677 374.509 104.864 376.692 106.138C386.517 112.262 393.937 117.598 404.19 123.134C406.207 123.6 410.517 126.773 411.872 126.555C417.199 125.697 422.903 116.894 428.18 113.505C434.244 109.553 440.994 106.773 448.081 105.306C458.563 103.079 469.578 103.942 478.712 109.856C484.632 113.404 490.233 117.457 495.454 121.971C496.795 121.382 499.355 120.166 500.66 119.807C498.562 121.439 498.089 121.62 495.711 122.595C508.052 134.084 512.684 143.921 513.348 161.154C513.886 175.048 509.051 183.26 499.879 193.133C506.351 201.266 513.029 207.1 519.362 214.544C521.607 216.446 523.852 218.391 526.113 220.263C565.993 253.233 600.462 293.626 604.864 347.326C604.979 348.647 605.034 349.973 605.034 351.299L604.134 350.251C599.875 350.666 588.91 364.065 575.471 364.263C559.989 364.492 552.767 360.248 541.155 350.537C538.91 353.422 533.702 362.804 531.913 366.559C524.098 382.987 511.904 393.173 495.081 399.705C478.794 406.027 455.348 404.329 439.414 396.947C418.872 387.43 414.407 373.617 407.274 354.286C389.368 364.695 376.219 370.426 355.528 367.768C318.527 363.013 290.615 325.997 300.34 288.908C302.19 281.85 305.044 271.67 305.656 265.064L305.721 264.303C284.685 266.308 267.897 267.833 249.113 254.164C238.526 246.46 229.877 229.289 228.208 216.34C223.876 182.727 236.987 162.249 256.787 136.669C243.165 122.737 231.919 110.215 232.138 89.3449C232.203 83.1518 233.667 76.8962 231.761 70.9281Z" fill="#875C32"/>
<path d="M404.194 123.137C406.211 123.602 410.521 126.776 411.876 126.558C417.203 125.699 422.906 116.896 428.184 113.507C434.247 109.556 440.997 106.775 448.084 105.308C458.567 103.082 469.581 103.944 478.715 109.858C484.635 113.406 490.237 117.459 495.457 121.974C496.799 121.384 499.358 120.168 500.663 119.809C498.565 121.441 498.093 121.622 495.714 122.597C508.055 134.086 512.687 143.924 513.351 161.156C513.889 175.05 509.054 183.262 499.883 193.135C506.354 201.269 513.033 207.102 519.366 214.547C518.658 219.017 529.952 237.286 532.795 241.431C534.145 244.106 535.418 246.816 536.62 249.558C549.478 279.024 513.774 291.001 502.123 260.67C501.442 266.567 500.789 274.815 497.531 279.675C492.827 286.417 483.988 291.434 475.95 292.623C451.957 296.172 434.525 287.989 430.198 262.824C412.101 289.781 373.528 266.052 370.508 240.316C369.7 233.423 371.541 227.834 374.136 221.565C346.068 223.918 329.719 201.619 335.438 174.526C337.46 164.947 345.875 160.489 353.812 156.237C332.116 147.338 317.141 106.251 362.535 113.804C369.911 115.42 377.244 117.225 384.528 119.217C388.063 120.19 400.079 124.307 402.941 124.217C403.31 123.916 403.912 123.476 404.194 123.137Z" fill="black"/>
<path d="M321.244 147.364C320.171 146.285 319.108 145.196 318.055 144.097C308.005 133.595 291.974 115.134 306.628 101.483C311.038 97.3747 315.61 96.6876 321.458 97.0175C325.137 97.2189 328.784 97.8099 332.338 98.7813C337.257 100.089 362.567 109.456 365.066 112.287L364.595 113.218L362.532 113.804C317.138 106.25 332.114 147.338 353.809 156.236C345.872 160.489 337.457 164.946 335.435 174.525C329.716 201.618 346.065 223.918 374.133 221.564C371.538 227.834 369.697 233.422 370.505 240.315C373.525 266.051 412.098 289.78 430.195 262.823C434.522 287.988 451.954 296.171 475.947 292.622C483.985 291.433 492.824 286.416 497.528 279.674C500.786 274.814 501.439 266.567 502.12 260.669C513.771 291 549.475 279.024 536.617 249.558C535.415 246.815 534.142 244.105 532.792 241.431C532.781 240.508 531.903 237.837 531.656 236.204L532.249 236.123C542.055 247.462 554.244 266.291 560.253 280.022C563.897 288.363 558.799 299.397 549.113 301.219C534.197 304.025 525.603 298.248 513.518 290.77C513.074 293.269 512.174 296.758 511.323 299.123C507.493 309.945 499.495 318.784 489.11 323.674C479.2 328.258 462.117 329.354 451.853 325.331C436.06 319.141 426.867 307.185 420.192 292.312C408.175 301.897 391.986 305.37 377.512 299.378C364.923 294.167 354.81 284.89 349.441 272.262C344.288 260.143 346.294 250.834 351.116 239.036C347.788 238.686 344.769 237.906 341.482 237.375C306.8 231.772 292.572 192.954 306.759 163.159C309.934 156.49 315.54 152.314 321.244 147.364Z" fill="#E48423"/>
<path d="M216.681 136.669C228.436 136.139 229.51 142.131 225.491 151.258C219.584 164.678 211.255 171.745 197.833 176.968C181.115 182.4 190.608 163.393 194.175 156.624C199.248 146.996 206.061 139.812 216.681 136.669Z" fill="black"/>
<path d="M181.943 248.114C193.07 246.307 194.001 254.749 192.116 263.155C189.208 276.118 182.393 285.603 171.431 292.866C168.349 294.423 166.84 294.684 163.449 295.479C159.907 277.46 163.894 256.679 181.943 248.114Z" fill="black"/>
<path d="M262.678 308.942C268.408 308.765 269.567 309.679 272.696 314.391C274.007 330.476 267.974 347.553 255.017 357.62C253.031 358.655 252.558 359.079 250.341 359.081C242.855 355.934 247.195 332.609 248.942 326.603C251.177 318.924 255.556 312.695 262.678 308.942Z" fill="black"/>
<path d="M157.199 463.746C158.337 463.714 159.95 463.654 161.044 463.891C162.78 464.254 164.301 465.295 165.268 466.78C166.334 468.448 166.585 470.545 166.427 472.482C165.13 488.282 155.967 499.751 143.017 507.868L137.211 510.672C132.963 492.145 138.301 471.395 157.199 463.746Z" fill="black"/>
<path d="M364.373 389.677C372.853 388.754 380.747 390.853 376.016 400.978C370.494 412.799 361.586 419.407 349.739 423.952C336.442 426.219 333.94 420.378 339.943 409.415C345.428 399.398 353.546 392.951 364.373 389.677Z" fill="black"/>
<path d="M371.617 522.59C380.964 523.44 380.541 530.306 378.181 537.462C373.62 551.297 364.802 558.612 352.255 565.017L347.175 566.916C345.384 549.206 351.033 525.669 371.617 522.59Z" fill="black"/>
<path d="M273.022 548.219C283.471 547.528 284.293 553.894 282.078 562.526C279.125 574.034 269.602 584.615 259.592 590.674C257.204 591.716 252.092 593.297 251.175 589.34C247.626 574.018 259.177 554.563 273.022 548.219Z" fill="black"/>
<path d="M535.958 410.415C545.628 410.348 546.764 417.777 545.491 425.445C543.268 438.838 535.097 448.721 524.571 456.668C523.1 457.561 521.964 458.109 520.405 458.848C516.855 458.042 516.975 453.202 516.948 450.244C516.8 435.489 522.683 418.233 535.958 410.415Z" fill="black"/>
<path d="M182.865 545.487C195.571 544.697 194.464 554.279 191.111 563.098C186.871 574.255 178.406 582.02 167.654 586.855C165.375 587.777 162.707 588.386 160.308 589.023C159.841 573.388 167.923 552.215 182.865 545.487Z" fill="black"/>
<path d="M444.863 444.59C451.975 444.081 457.387 446.839 454.991 454.787C451.016 467.974 440.197 476.036 427.654 480.35C424.454 481.118 422.792 481.601 419.526 481.683C414.659 479.208 419.952 469.505 421.718 466.015C426.531 456.507 434.534 447.99 444.863 444.59Z" fill="black"/>
<path d="M256.691 439.508C263.788 438.944 265.447 442.742 264.563 449.245C262.424 464.986 253.217 474.916 241.085 484.092C239.956 484.871 239.712 484.877 238.432 485.294C231.175 482.007 237.496 461.575 239.801 456.3C243.332 448.216 248.507 442.758 256.691 439.508Z" fill="black"/>
<path d="M151.992 360.023C157.715 361.72 157.757 369.294 156.872 374.141C154.471 387.299 142.174 397.525 130.395 402.469L128.367 402.455C121.835 397.424 130.066 380.109 133.406 374.694C137.909 367.392 143.516 362.016 151.992 360.023Z" fill="black"/>
<path d="M478.715 109.857C483.481 103.247 489.401 98.9042 496.111 94.2406C524.201 74.8426 557.029 61.187 590.73 55.4023C600.169 53.7817 618.697 51.9054 627.389 56.434C630.863 58.2455 630.506 72.1859 628.448 76.0581C624.909 79.0172 590.247 79.9293 580.896 82.142C549.604 89.5462 526.703 101.852 500.663 119.808C499.358 120.167 496.799 121.383 495.457 121.972C490.237 117.458 484.635 113.405 478.715 109.857Z" fill="#E03105"/>
</svg>
