<svg width="700" height="700" viewBox="0 0 700 700" fill="none" xmlns="http://www.w3.org/2000/svg">
<path d="M306.002 101.616C283.396 111.056 268.92 124.312 259.203 144.397C253.849 155.444 253.452 157.854 253.651 180.35C253.651 201.238 254.444 206.46 259.203 220.319C264.359 235.986 269.911 247.635 267.532 238.597C266.937 236.387 264.16 227.751 261.186 219.516C256.625 206.46 256.03 201.238 255.832 180.35C255.832 161.47 256.427 155.042 259.005 150.222C260.789 146.807 262.376 143.393 262.376 142.389C262.376 141.585 265.549 136.363 269.316 131.141C278.041 119.09 293.509 108.244 310.959 102.017C318.693 99.2055 323.056 96.9961 320.874 96.9961C318.693 96.9961 311.951 99.2054 306.002 101.616ZM162.631 213.691C136.257 219.918 112.659 246.631 101.951 282.583C99.5712 290.216 98.1831 296.844 98.778 297.446C99.1746 298.049 99.9678 297.246 100.364 295.639C109.288 263.502 118.013 247.233 134.274 231.969C145.973 220.922 156.88 216.101 174.33 213.691C185.435 212.285 186.228 211.883 179.09 211.883C174.132 211.883 166.795 212.687 162.631 213.691ZM208.835 424.787C193.169 434.026 165.209 462.949 158.466 477.008C143.396 508.341 152.319 545.499 181.271 571.81C192.376 582.054 208.24 593.101 211.611 593.101C212.602 593.101 208.24 589.686 201.696 585.468C170.364 564.781 153.311 537.666 153.311 507.739C153.311 481.226 172.942 451.5 203.481 431.214C225.095 416.953 227.673 413.941 208.835 424.787ZM356.965 505.128C358.948 516.174 369.26 546.704 374.614 557.349C380.959 570.003 395.634 586.272 405.549 591.293C416.852 597.118 417.248 595.712 406.143 589.285C393.849 582.054 385.52 573.216 377.787 558.956C370.449 545.298 361.922 520.794 360.336 508.14C359.543 502.918 358.353 498.7 357.362 498.7C356.37 498.7 356.172 501.713 356.965 505.128Z" fill="#DC3207"/>
<path d="M328.416 97.2031C298.275 102.224 267.737 124.318 261.391 145.207C260.598 148.019 259.011 151.433 257.623 153.04C256.433 154.647 255.442 164.89 255.64 179.151C255.64 204.86 257.425 212.492 271.306 246.637C274.677 254.872 276.66 263.709 275.074 263.709C274.28 263.709 267.737 258.889 260.598 253.064C229.266 227.556 219.946 222.133 198.728 216.509C183.459 212.291 165.215 213.496 152.326 219.321C133.091 227.958 112.864 253.466 105.527 278.773C103.147 286.406 100.371 294.841 99.1813 297.453C97.9915 299.863 97 310.709 97 321.555C97 356.302 109.691 378.999 137.652 393.259C157.283 403.502 178.7 407.118 207.255 405.511C220.144 404.708 231.448 404.507 232.439 405.109C236.802 407.921 231.051 414.148 215.187 423.387C187.028 440.058 162.439 467.373 155.895 489.266C152.722 500.514 153.119 519.595 157.283 533.253C165.215 560.167 201.901 591.701 237.397 602.145C253.062 606.765 274.082 605.56 286.575 599.333C314.734 585.474 333.771 555.949 347.453 505.134C351.023 492.078 358.161 494.087 360.343 508.749C362.326 521.403 370.853 545.907 377.793 558.962C386.32 574.428 396.235 584.269 411.108 591.701C422.807 597.526 425.584 598.128 441.844 597.927C461.873 597.726 475.357 593.709 494.195 582.662C515.81 569.808 543.969 536.065 543.969 523.009C543.969 520.8 544.96 516.783 546.348 513.971C548.133 509.954 547.737 505.736 544.96 493.886C538.416 465.164 521.164 442.869 488.841 421.378C478.133 414.148 467.822 407.118 465.839 405.31C458.105 399.285 466.632 398.079 489.436 402.297C506.49 405.31 539.804 403.904 551.703 399.686C583.431 388.238 605.442 352.888 602.864 317.337C601.476 297.653 592.949 265.718 589.181 265.718C588.19 265.718 587.595 264.714 587.595 263.509C587.595 258.286 572.127 236.394 562.014 227.355C546.547 213.496 533.459 208.676 513.431 210.082C490.824 211.689 469.408 223.338 439.266 250.252C426.773 261.5 420.428 262.906 423.006 253.667C423.997 250.252 426.377 243.825 428.558 239.005C432.326 230.77 435.697 222.133 440.654 207.471C442.042 203.655 443.629 193.01 444.224 183.971C448.388 122.31 399.011 85.3528 328.416 97.2031ZM367.878 198.633C386.915 205.061 403.176 226.351 403.176 244.829C403.176 255.475 397.822 271.744 388.7 288.013C380.371 303.478 376.008 307.897 374.224 303.277C373.232 300.666 375.612 289.017 378.785 280.581C379.38 278.974 378.785 277.769 377.595 277.769C376.405 277.769 375.414 279.376 375.414 281.184C375.215 287.41 367.68 301.871 364.507 301.871C361.136 301.871 360.739 296.649 363.317 285.401C364.309 281.384 364.507 277.367 363.714 276.765C363.119 275.961 361.731 280.782 360.541 287.209C358.955 296.85 357.963 298.859 354.592 298.859C351.419 298.859 350.626 297.453 350.229 291.829C350.031 288.013 349.833 280.179 349.436 274.756C349.238 266.521 348.841 267.726 347.652 281.384C346.263 297.854 344.082 303.478 339.918 301.068C338.926 300.265 337.34 295.645 336.547 290.824C335.952 285.803 334.365 281.184 333.374 280.581C332.184 279.778 331.787 280.782 332.382 282.991C336.745 299.26 334.564 309.303 328.416 300.867C326.037 297.252 325.839 297.453 325.839 302.474C325.839 312.717 320.683 307.897 311.957 289.619C307 279.577 302.439 270.94 301.646 270.538C299.663 269.132 301.249 273.551 310.371 293.636C318.303 311.311 319.493 316.734 315.527 315.529C310.371 313.922 297.482 290.824 290.739 271.543C284.394 252.863 283.997 250.654 286.178 241.214C287.368 235.59 290.144 227.958 292.326 224.342C298.076 214.702 312.949 202.048 322.467 198.633C333.572 194.817 356.575 194.616 367.878 198.633ZM473.374 277.367C492.212 288.213 502.524 308.299 502.722 334.61C502.722 356.905 488.841 377.191 469.805 382.413C452.949 387.033 408.926 377.793 407.538 369.358C406.745 366.144 407.538 365.742 413.884 366.947C417.85 367.751 422.212 367.55 423.601 366.747C424.989 365.742 422.411 364.738 417.057 364.135C408.728 363.131 408.133 362.73 408.133 357.106C408.133 353.691 407.538 350.076 406.745 348.871C404.564 345.657 408.133 343.247 423.006 337.221C434.11 332.803 434.705 332.2 427.963 333.405C423.601 334.008 418.048 335.414 415.47 336.217C403.374 340.837 398.218 334.61 409.125 328.384C412.297 326.576 415.074 324.166 415.074 323.363C415.074 322.358 416.065 322.358 417.057 322.961C418.246 323.563 419.04 323.162 419.04 322.157C419.04 319.345 419.238 319.345 409.125 322.961C404.564 324.568 400.003 325.974 399.011 325.974C395.442 325.974 397.425 320.952 403.77 314.123L410.116 307.294L402.581 311.512C393.856 316.534 389.295 317.136 389.295 313.119C389.295 310.307 409.323 290.624 422.411 280.38C437.878 268.329 455.527 267.325 473.374 277.367ZM269.72 284.598C288.36 294.038 314.337 322.358 309.181 327.38C308.388 328.183 306.008 327.781 304.025 326.375C301.646 324.969 300.059 324.768 300.059 325.974C300.059 326.978 301.051 327.982 302.042 327.982C303.232 327.982 304.025 329.79 304.025 331.999C304.025 335.012 302.637 336.016 298.671 336.016C293.912 336.217 293.714 336.418 296.688 338.226C301.249 341.038 301.051 346.059 296.093 346.059C291.533 346.059 290.739 349.072 295.102 350.879C298.671 352.285 299.068 357.507 295.697 358.712C294.309 359.114 289.946 359.315 286.178 358.913C279.833 358.311 280.031 358.512 287.765 360.52C298.671 363.332 297.482 366.947 285.385 367.751C280.031 368.152 276.66 369.157 277.453 370.362C278.048 371.366 281.816 371.768 285.782 371.165C291.334 370.161 292.326 370.362 290.144 371.969C287.765 373.776 287.963 374.178 291.731 374.178C298.275 374.178 297.085 380.003 289.748 383.216C277.453 388.238 251.873 392.656 241.561 391.05C203.686 385.827 184.649 348.469 201.306 311.914C215.584 280.179 241.363 269.936 269.72 284.598ZM361.731 328.384C371.646 331.798 377.595 337.221 381.957 346.661C391.079 367.349 374.62 392.255 351.816 392.255C337.142 392.255 321.873 380.806 318.105 367.148C311.363 342.243 336.745 319.747 361.731 328.384ZM427.368 390.648C447.793 401.695 456.518 409.327 463.657 422.583C474.365 442.468 470.399 464.16 452.552 482.638C441.448 494.288 427.17 501.317 412.892 502.322C386.915 504.33 369.861 489.668 359.351 456.527C357.368 450.502 355.782 446.686 355.782 447.891C355.584 449.297 354.79 450.502 353.601 450.502C352.411 450.502 351.618 444.476 351.618 436.643V422.784L358.558 421.579C362.524 420.776 366.292 420.575 367.283 421.177C368.275 421.78 369.465 420.575 370.059 418.366C371.646 412.139 378.586 413.344 381.363 420.374C382.751 423.789 384.337 426.199 384.734 425.596C385.13 425.195 384.337 422.182 382.751 418.968C377 407.319 384.139 404.306 392.269 415.152C399.011 423.989 405.357 427.203 400.003 418.968C398.02 415.754 395.244 411.135 393.855 408.323C390.088 401.092 394.847 400.691 405.555 407.52L414.082 412.943L406.745 404.708C402.581 400.088 399.21 395.468 399.21 394.464C399.21 390.045 403.969 390.246 411.108 395.067C415.47 397.879 418.445 399.084 417.85 397.678C417.453 396.272 414.28 393.46 411.108 391.451C404.762 387.836 403.176 382.212 408.331 382.212C410.116 382.212 418.841 386.028 427.368 390.648ZM298.076 388.639C298.076 390.045 294.904 393.46 291.334 396.272C287.567 399.084 284.989 401.695 285.385 402.097C285.782 402.498 289.351 400.49 293.119 397.477C305.81 387.635 310.966 395.87 299.663 407.72C296.093 411.336 294.309 414.348 295.3 414.348C296.49 414.348 299.465 412.139 302.042 409.327C307.198 403.703 313.94 402.699 313.94 407.319C313.94 409.126 310.371 415.353 305.81 421.378C301.448 427.404 298.076 433.429 298.473 434.835C299.068 436.241 303.034 431.622 307.793 424.793C315.527 413.344 319.295 410.331 322.467 413.545C323.062 414.349 322.467 417.964 320.881 421.579C317.113 430.618 320.286 430.417 324.45 421.378C326.235 417.562 328.615 414.348 329.606 414.348C333.374 414.348 336.15 420.374 334.762 425.797C333.969 429.412 334.167 430.818 335.357 429.412C336.547 428.207 337.737 425.596 338.133 423.387C338.53 420.575 340.314 419.37 343.686 419.37C348.445 419.37 348.643 419.972 348.841 432.425C349.04 439.656 348.445 446.284 347.652 447.489C346.858 448.493 345.47 453.113 344.677 457.331C341.504 476.211 327.425 494.689 310.371 502.723C283.799 515.578 241.957 493.283 234.62 462.553C228.87 438.049 242.156 415.554 274.082 396.272C290.739 386.229 298.076 384.02 298.076 388.639Z" fill="#DC3207"/>
<path d="M322.459 198.629C312.941 202.044 298.068 214.697 292.317 224.338C290.136 227.954 287.36 235.586 286.17 241.21C283.989 250.65 284.385 252.859 290.731 271.539C297.473 290.82 310.363 313.918 315.519 315.525C319.485 316.73 318.295 311.307 310.363 293.632C301.241 273.547 299.655 269.128 301.638 270.534C302.431 270.936 306.992 279.573 311.949 289.615C320.674 307.893 325.83 312.713 325.83 302.47C325.83 297.248 326.029 297.248 328.606 301.064C333.564 307.692 336.142 302.269 333.762 290.017C330.589 273.346 331.779 271.137 335.547 286.803C337.728 296.043 339.711 300.863 341.694 300.863C345.462 300.863 347.247 293.632 347.643 274.752C348.04 254.065 349.428 257.479 350.023 280.778C350.618 297.248 351.014 298.855 354.584 298.855C357.955 298.855 358.946 296.645 360.731 286.201C361.921 279.372 363.706 272.945 364.499 272.141C365.292 271.338 365.49 273.949 364.697 277.765C360.929 297.047 360.929 301.867 364.102 301.867C367.87 301.867 372.034 294.436 375.405 281.983C376.595 277.363 378.182 273.949 378.776 274.551C379.371 275.154 378.38 281.18 376.595 288.009C370.249 310.906 376.199 310.906 388.691 288.009C397.813 271.74 403.167 255.47 403.167 244.825C403.167 226.347 386.907 205.057 367.87 198.629C356.567 194.612 333.564 194.813 322.459 198.629ZM364.499 201.843C385.32 207.266 400.589 227.552 398.805 248.24C398.012 257.68 384.329 291.624 382.147 289.414C381.751 289.013 382.742 282.385 384.329 274.752C388.097 257.077 388.097 251.654 384.527 251.654C381.751 251.654 377.983 260.09 370.448 283.389C366.482 295.641 364.895 296.444 367.473 284.795C369.853 274.351 370.051 246.231 367.672 244.624C364.895 243.018 363.904 245.428 361.524 258.885C360.533 265.312 358.748 274.351 357.955 278.769L356.368 286.803L354.98 274.15C354.187 267.321 352.997 256.274 352.402 249.646C350.023 227.954 343.876 236.39 343.479 261.496C343.479 267.722 342.686 277.162 342.091 282.786L340.703 292.829L338.125 278.769C332.969 249.847 331.184 243.62 328.21 243.62C325.632 243.62 325.434 246.432 326.623 261.898C327.417 271.94 328.408 282.987 329.003 286.402C329.796 291.825 329.4 291.423 326.227 283.791C324.244 278.769 321.071 270.534 319.088 265.111C317.105 259.889 314.329 255.671 312.742 255.671C308.975 255.671 309.173 258.483 314.924 277.765C317.7 287.004 319.881 295.038 319.683 295.641C319.683 296.243 315.519 288.209 310.363 277.765C300.646 257.68 294.102 252.056 294.102 263.103C293.904 268.124 293.706 268.325 291.723 264.911C290.533 262.902 289.74 255.27 289.74 248.24C289.74 236.389 290.334 234.18 297.275 224.138C306.397 210.881 319.881 202.446 335.745 199.834C346.85 198.027 350.221 198.228 364.499 201.843ZM436.284 272.543C427.558 275.757 420.816 280.979 402.771 297.85C384.924 314.32 384.924 321.752 402.572 311.508L410.108 307.29L403.762 314.119C397.417 320.948 395.434 325.97 398.805 325.97C399.796 325.97 405.745 324.162 412.091 321.953C428.351 316.329 429.938 317.132 416.453 324.162C405.547 329.786 401.184 334.606 403.961 337.418C404.555 338.021 411.496 337.217 419.23 335.209C426.963 333.401 433.706 332.196 434.102 332.598C434.499 332.999 430.136 334.807 424.385 336.816C410.504 341.837 404.555 345.653 406.538 348.666C407.332 350.072 408.125 353.687 408.125 357.102C408.125 363.127 408.125 363.127 423.989 365.537L439.853 367.948L423.394 367.144C408.918 366.542 406.935 366.943 407.53 369.755C408.918 377.789 453.536 386.828 469.796 382.409C480.504 379.396 492.997 368.349 498.351 356.7C506.68 338.824 502.714 308.495 489.825 291.624C477.332 274.953 452.941 266.316 436.284 272.543ZM469.003 279.171C478.72 283.188 491.213 297.449 495.179 309.299C502.912 331.995 495.972 368.349 484.867 364.734C482.289 363.931 482.091 364.332 484.074 365.537C487.445 367.948 484.669 370.559 472.374 375.982C461.666 381.003 452.742 381.204 434.301 376.785C419.031 373.17 419.23 372.969 438.861 371.161C454.527 369.755 458.493 367.747 454.924 363.529C453.734 361.721 450.759 360.918 448.182 361.52C445.009 362.123 444.612 361.922 446.595 360.516C448.578 358.909 448.776 358.307 446.793 357.102C445.207 356.097 443.224 356.901 441.836 358.708C438.861 362.926 435.689 363.127 434.301 359.311C433.507 357.302 436.878 355.896 447.388 353.687C457.502 351.879 461.666 350.072 461.666 348.063C461.666 344.649 453.734 344.247 427.558 346.657C418.436 347.461 411.099 347.662 411.099 347.26C411.099 347.059 421.411 342.841 433.904 338.021C455.32 329.987 459.088 327.576 455.122 325.166C453.536 324.162 418.635 330.589 412.686 332.999C410.703 333.803 409.116 333.803 409.116 333.2C409.116 331.794 437.275 317.534 446.992 314.119C454.329 311.508 453.734 306.688 446 307.491C443.026 307.893 432.516 310.705 422.799 313.918C412.884 317.333 404.357 319.944 403.762 319.944C401.383 319.944 415.065 309.901 425.575 303.876C441.043 295.038 440.448 288.008 424.782 294.637C420.023 296.645 418.436 290.419 422.601 286C433.507 274.351 450.759 271.74 469.003 279.171ZM227.275 281.782C203.479 294.034 189.201 329.786 197.728 355.696C207.048 383.815 233.026 396.268 267.332 389.238C302.827 381.806 306.595 372.567 274.47 371.965C262.969 371.764 266.142 370.358 282.402 368.55C289.145 367.747 295.094 366.14 295.49 364.935C295.887 363.73 292.317 361.721 287.757 360.516C279.825 358.307 279.626 358.307 286.368 358.909C290.334 359.512 294.697 359.11 296.085 358.106C301.638 354.691 295.689 350.072 277.842 344.247C267.728 341.033 260.788 338.222 262.374 338.222C263.961 338.021 271.099 339.828 278.238 342.038C294.3 347.059 300.646 347.26 299.655 342.841C299.258 341.033 291.723 336.213 282.204 331.794C262.176 322.555 263.762 321.35 284.385 329.987C301.439 337.016 304.017 337.217 304.017 332.397C304.017 330.388 298.465 325.367 290.334 319.944C282.799 314.923 276.85 310.705 277.247 310.303C277.445 309.901 284.187 313.718 291.921 318.739C306.397 328.179 309.966 329.585 309.966 325.97C309.966 317.132 286.567 293.231 269.711 284.393C255.434 277.162 238.38 276.158 227.275 281.782ZM269.116 288.611C279.626 293.833 304.017 315.726 304.017 319.944C304.017 320.948 299.456 319.141 293.904 315.726C274.272 304.077 263.961 299.457 261.978 301.466C260.589 302.872 265.944 307.491 277.048 314.923C291.723 324.965 298.068 329.987 295.689 329.987C295.292 329.987 286.368 326.773 275.66 322.957C264.952 319.141 254.839 315.927 253.252 315.927C246.312 315.927 252.657 321.35 270.108 330.388C289.74 340.632 290.533 341.636 275.065 337.217C257.218 332.196 242.544 329.384 241.354 330.589C237.983 334.004 244.329 337.82 266.538 345.05C293.706 354.089 292.119 356.097 261.383 351.679C243.337 348.867 236.595 349.068 236.595 352.08C236.595 354.491 245.915 357.704 261.978 360.516C269.711 361.922 276.255 363.73 276.255 364.533C276.255 365.337 268.72 366.14 259.598 366.14C231.836 366.14 236.199 372.768 265.745 375.379C283.196 376.986 292.912 379.597 283.791 380.4C280.618 380.601 277.048 380.802 275.859 381.003C274.47 381.204 272.686 381.806 272.091 382.811C270.306 385.422 249.485 388.033 240.363 386.828C205.66 382.208 189.003 346.858 205.264 312.512C206.453 310.102 208.238 308.495 209.23 309.098C210.023 309.701 210.816 308.295 210.816 306.085C210.816 300.26 220.334 289.816 229.655 285.397C240.363 280.376 254.64 281.581 269.116 288.611ZM405.15 385.02C405.15 386.627 408.125 389.84 411.893 392.05C415.66 394.46 419.825 397.875 421.213 399.682C424.187 403.298 423.394 403.097 407.728 392.652C403.366 389.841 399.201 390.644 399.201 394.46C399.201 395.464 405.547 403.699 413.479 412.738L427.757 429.408L413.479 415.75C405.547 408.319 397.417 402.293 395.235 402.293C390.278 402.293 391.269 405.105 402.176 422.379C416.85 445.677 416.453 445.878 398.408 422.78C392.063 414.947 385.717 408.319 384.329 408.319C380.165 408.319 379.57 412.738 382.742 418.964C384.329 422.178 385.122 425.19 384.725 425.592C384.329 426.195 382.742 423.784 381.354 420.37C378.578 413.34 371.638 412.135 370.051 418.361C369.456 420.571 368.266 421.776 367.275 421.173C366.283 420.571 362.516 420.772 358.55 421.575L351.609 422.78V436.639C351.609 444.472 352.402 450.498 353.592 450.498C354.782 450.498 355.575 449.293 355.774 447.887C355.774 446.682 357.36 450.498 359.343 456.523C366.878 480.425 378.975 495.69 394.244 500.711C412.289 506.736 436.68 499.104 452.544 482.634C470.391 464.156 474.357 442.464 463.649 422.579C456.51 409.323 447.785 401.691 427.36 390.644C410.901 381.806 405.15 380.4 405.15 385.02ZM432.119 397.674C443.621 403.9 452.742 411.934 452.742 415.75C452.742 417.357 453.536 418.161 454.329 417.558C455.32 416.956 458.295 420.37 460.873 424.99C467.02 436.237 467.218 454.113 461.269 465.562C447.587 491.472 414.074 505.732 391.864 494.685C380.561 489.262 370.249 476.809 371.241 469.98C371.241 469.177 370.646 468.575 369.655 468.575C365.49 468.575 358.748 437.041 360.929 428.404C362.714 421.977 364.3 423.584 369.258 436.84C376.397 456.122 383.337 470.583 385.519 470.583C388.691 470.583 387.502 463.955 381.354 445.276C372.034 417.759 374.612 416.554 388.89 441.259C397.615 456.122 402.176 462.348 403.564 460.942C404.952 459.536 402.374 452.105 395.434 437.242C389.881 425.391 385.717 415.349 386.113 414.947C386.51 414.545 393.252 421.977 401.184 431.819C413.876 447.485 421.014 453.711 421.014 449.293C421.014 448.69 416.453 439.853 410.901 430.011C405.349 420.169 401.184 411.733 401.779 411.131C402.374 410.528 408.918 415.951 416.652 423.182C429.541 435.635 434.895 438.848 434.895 434.631C434.895 433.626 428.748 425.592 421.411 416.955C413.876 408.118 407.133 399.883 406.142 398.276C404.754 396.067 417.247 403.498 434.895 415.55C442.827 421.173 444.81 421.575 444.81 417.558C444.81 415.951 439.258 409.725 432.516 403.498C425.575 397.473 420.618 392.251 421.213 392.251C422.006 392.251 426.765 394.661 432.119 397.674ZM274.074 396.268C242.147 415.55 228.861 438.045 234.612 462.549C241.949 493.279 283.791 515.574 310.363 502.719C334.159 491.472 346.453 468.173 348.04 431.417C348.635 420.169 348.238 419.366 344.074 418.763C341.694 418.362 339.315 419.366 338.918 420.772C338.521 422.178 336.142 430.011 333.762 438.246C328.21 457.528 327.02 455.921 332.176 436.036C335.547 423.383 335.944 419.968 333.762 417.357C332.374 415.75 330.391 414.344 329.4 414.344C328.408 414.344 323.451 423.383 318.493 434.43C313.337 445.477 308.975 454.113 308.578 453.912C308.181 453.511 311.553 444.673 315.717 434.229C320.08 423.985 323.054 414.746 322.657 413.943C320.08 409.725 315.32 413.541 305.405 428.002C299.456 436.438 293.111 444.874 291.128 446.481C287.162 449.895 299.258 429.609 308.182 418.161C311.354 414.144 313.932 409.323 313.932 407.515C313.932 401.289 306.793 404.503 292.119 417.759L277.247 431.015L291.723 416.152C299.456 407.917 306 399.682 306 397.674C306 391.648 300.646 391.648 293.111 397.473C289.343 400.486 285.774 402.494 285.377 402.092C284.98 401.691 287.558 399.08 291.326 396.268C294.895 393.456 298.068 390.041 298.068 388.635C298.068 384.016 290.731 386.225 274.074 396.268ZM273.281 407.716C265.15 416.353 258.408 423.985 258.408 424.789C258.408 428.404 263.366 425.592 280.023 412.336C289.541 404.503 298.663 398.276 299.853 398.276C301.241 398.276 295.094 406.11 286.368 415.75C272.289 431.216 266.935 440.455 271.893 440.455C272.686 440.455 279.626 434.831 287.36 427.802C294.895 420.973 302.827 413.943 304.81 412.537C306.793 410.93 302.827 418.361 296.283 429.007C289.541 439.652 284.187 449.694 284.187 451.502C284.187 455.318 288.946 455.519 292.119 451.502C293.309 449.895 295.49 448.891 296.482 449.092C297.672 449.293 298.861 448.088 299.06 446.28C299.456 443.468 311.553 424.99 316.312 419.366C317.303 418.161 316.312 422.379 313.932 428.404C304.81 451.502 300.448 464.357 301.638 465.361C305.009 468.775 308.38 464.357 317.898 443.87C329.4 419.165 329.4 419.366 330.788 420.772C331.383 421.173 329.201 432.019 326.029 444.673C323.054 457.327 320.873 468.173 321.269 469.177C323.847 473.797 333.167 456.523 338.918 436.036C343.082 420.772 345.66 419.767 344.272 433.827C342.091 459.938 332.969 482.232 320.873 491.672C304.81 503.924 293.309 505.33 272.884 497.698C251.071 489.262 236.595 471.186 236.595 452.305C236.595 441.861 244.131 425.592 252.856 416.955C259.598 410.528 284.98 392.452 287.757 392.251C287.955 392.251 281.609 399.281 273.281 407.716Z" fill="#E6831E"/>
<path d="M335.749 199.834C319.885 202.445 306.401 210.881 297.279 224.137C290.338 234.18 289.743 236.389 289.743 248.239C289.743 255.269 290.537 262.902 291.726 264.91C293.709 268.325 293.908 268.124 294.106 263.102C294.106 252.056 300.65 257.679 310.367 277.765C315.522 288.209 319.687 296.243 319.687 295.64C319.885 295.038 317.704 287.004 314.928 277.765C309.177 258.483 308.979 255.671 312.746 255.671C314.333 255.671 317.109 259.889 319.092 265.111C321.075 270.534 324.248 278.769 326.231 283.79C329.403 291.423 329.8 291.824 329.007 286.401C328.412 282.987 327.42 271.94 326.627 261.897C325.437 246.432 325.636 243.62 328.214 243.62C331.188 243.62 332.973 249.846 338.129 278.769L340.707 292.829L342.095 282.786C342.69 277.162 343.483 267.722 343.483 261.496C343.879 236.389 350.027 227.953 352.406 249.645C353.001 256.273 354.191 267.32 354.984 274.149L356.372 286.803L357.959 278.769C358.752 274.35 360.537 265.312 361.528 258.885C363.908 245.427 364.899 243.017 367.675 244.624C370.055 246.231 369.857 274.35 367.477 284.794C364.899 296.444 366.486 295.64 370.452 283.388C377.987 260.09 381.755 251.654 384.531 251.654C388.1 251.654 388.1 257.077 384.333 274.752C382.746 282.384 381.755 289.012 382.151 289.414C384.333 291.623 398.015 257.679 398.809 248.239C400.593 227.552 385.324 207.266 364.503 201.843C350.225 198.227 346.854 198.026 335.749 199.834ZM441.84 275.555C434.106 277.564 426.769 281.38 422.605 286C418.44 290.418 420.027 296.645 424.786 294.636C440.452 288.008 441.047 295.038 425.579 303.875C415.069 309.901 401.386 319.944 403.766 319.944C404.361 319.944 412.888 317.332 422.803 313.918C432.52 310.704 443.03 307.892 446.004 307.491C453.738 306.687 454.333 311.508 446.996 314.119C437.279 317.533 409.12 331.794 409.12 333.2C409.12 333.802 410.707 333.802 412.69 332.999C418.639 330.589 453.539 324.161 455.126 325.166C459.092 327.576 455.324 329.986 433.908 338.02C421.415 342.841 411.103 347.059 411.103 347.259C411.103 347.661 418.44 347.46 427.562 346.657C453.738 344.247 461.67 344.648 461.67 348.063C461.67 350.071 457.505 351.879 447.392 353.687C436.882 355.896 433.511 357.302 434.304 359.311C435.692 363.127 438.865 362.926 441.84 358.708C443.228 356.9 445.211 356.097 446.797 357.101C448.78 358.306 448.582 358.909 446.599 360.516C444.616 361.922 445.013 362.123 448.185 361.52C450.763 360.917 453.738 361.721 454.928 363.528C458.497 367.746 454.531 369.755 438.865 371.161C419.233 372.968 419.035 373.169 434.304 376.785C452.746 381.203 461.67 381.003 472.378 375.981C484.673 370.558 487.449 367.947 484.078 365.537C482.095 364.332 482.293 363.93 484.871 364.734C495.976 368.349 502.916 331.995 495.182 309.298C487.449 286.602 462.066 270.333 441.84 275.555ZM229.658 285.397C220.338 289.816 210.82 300.26 210.82 306.085C210.82 308.294 210.027 309.7 209.234 309.098C205.466 306.888 198.922 326.773 198.922 340.23C198.922 364.131 216.372 383.614 240.367 386.827C249.488 388.032 270.31 385.421 272.095 382.81C272.69 381.806 274.474 381.203 275.862 381.003C277.052 380.802 280.622 380.601 283.794 380.4C292.916 379.597 283.2 376.986 265.749 375.379C236.202 372.768 231.84 366.14 259.602 366.14C268.724 366.14 276.259 365.336 276.259 364.533C276.259 363.729 269.715 361.922 261.981 360.516C245.919 357.704 236.599 354.49 236.599 352.08C236.599 349.067 243.341 348.866 261.386 351.678C292.123 356.097 293.709 354.088 266.542 345.05C244.333 337.819 237.987 334.003 241.358 330.589C242.548 329.384 257.222 332.196 275.069 337.217C290.537 341.636 289.743 340.631 270.112 330.388C252.661 321.35 246.316 315.927 253.256 315.927C254.843 315.927 264.956 319.14 275.664 322.956C286.372 326.773 295.296 329.986 295.692 329.986C298.072 329.986 291.726 324.965 277.052 314.922C265.947 307.491 260.593 302.871 261.981 301.465C263.964 299.457 274.276 304.076 293.908 315.726C299.46 319.14 304.021 320.948 304.021 319.944C304.021 318.738 298.667 312.512 292.123 306.085C271.103 284.995 247.109 277.162 229.658 285.397ZM274.276 400.485C255.834 412.336 245.126 423.382 240.565 436.036C235.806 448.69 235.607 454.916 239.573 466.766C243.936 479.822 256.429 491.471 272.888 497.698C293.313 505.33 304.814 503.924 320.877 491.672C332.973 482.232 342.095 459.937 344.276 433.827C345.664 419.767 343.086 420.771 338.922 436.036C333.171 456.523 323.851 473.796 321.273 469.177C320.877 468.172 323.058 457.326 326.032 444.673C329.205 432.019 331.386 421.173 330.792 420.771C329.403 419.365 329.403 419.164 317.902 443.869C308.384 464.356 305.013 468.775 301.641 465.36C300.452 464.356 304.814 451.502 313.936 428.404C316.316 422.378 317.307 418.16 316.316 419.365C311.556 424.989 299.46 443.468 299.064 446.279C298.865 448.087 297.675 449.292 296.486 449.091C295.494 448.891 293.313 449.895 292.123 451.502C288.95 455.519 284.191 455.318 284.191 451.502C284.191 449.694 289.545 439.651 296.287 429.006C302.831 418.361 306.797 410.93 304.814 412.536C302.831 413.942 294.899 420.972 287.364 427.801C279.63 434.831 272.69 440.455 271.896 440.455C266.939 440.455 272.293 431.216 286.372 415.75C295.098 406.109 301.245 398.276 299.857 398.276C298.667 398.276 289.545 404.502 280.027 412.336C263.369 425.592 258.412 428.404 258.412 424.788C258.412 423.985 265.154 416.353 273.284 407.716C281.613 399.28 287.959 392.25 287.76 392.25C287.364 392.25 281.415 396.066 274.276 400.485ZM432.52 403.498C439.262 409.724 444.814 415.951 444.814 417.558C444.814 421.575 442.831 421.173 434.899 415.549C417.25 403.498 404.758 396.066 406.146 398.276C407.137 399.883 413.879 408.118 421.415 416.955C428.752 425.592 434.899 433.626 434.899 434.63C434.899 438.848 429.545 435.634 416.656 423.182C408.922 415.951 402.378 410.528 401.783 411.13C401.188 411.733 405.352 420.169 410.905 430.01C416.457 439.852 421.018 448.69 421.018 449.292C421.018 453.711 413.879 447.485 401.188 431.818C393.256 421.976 386.514 414.545 386.117 414.947C385.721 415.348 389.885 425.391 395.437 437.241C402.378 452.104 404.956 459.536 403.568 460.942C402.18 462.348 397.619 456.121 388.894 441.258C374.616 416.553 372.038 417.758 381.358 445.275C387.505 463.954 388.695 470.583 385.522 470.583C383.341 470.583 376.401 456.121 369.262 436.839C364.304 423.583 362.718 421.976 360.933 428.404C358.752 437.04 365.494 468.574 369.658 468.574C370.65 468.574 371.245 469.177 371.245 469.98C370.253 476.809 380.565 489.262 391.868 494.685C414.078 505.732 447.59 491.471 461.273 465.561C467.222 454.113 467.024 436.237 460.877 424.989C458.299 420.37 455.324 416.955 454.333 417.558C453.539 418.16 452.746 417.357 452.746 415.75C452.746 411.934 443.624 403.9 432.123 397.673C426.769 394.661 422.01 392.25 421.217 392.25C420.622 392.25 425.579 397.472 432.52 403.498Z" fill="#E6831E"/>
<path d="M338.724 328.985C334.361 330.591 327.817 335.211 324.446 339.228C318.696 345.856 317.902 348.066 317.902 358.51C317.902 369.557 318.497 370.762 326.033 379.198C330.99 384.621 337.336 389.24 341.698 390.445C349.234 392.856 362.52 391.65 364.503 388.437C364.9 387.433 361.925 387.433 357.364 388.437C337.534 393.056 319.885 378.394 319.885 357.706C319.885 343.848 328.809 333.604 343.285 330.391C358.157 326.976 372.237 332.801 378.384 344.651L381.557 351.078L380.367 345.053C378.979 338.625 372.435 332.399 362.718 328.583C354.588 325.57 348.242 325.57 338.724 328.985Z" fill="#800000"/>
<path d="M337.734 331.596C326.431 336.617 319.887 346.258 319.887 357.706C319.887 386.227 352.408 399.885 372.635 380.001C376.402 376.386 379.377 372.77 379.377 372.168C379.377 371.364 375.807 374.176 371.643 378.193C351.416 397.676 321.87 385.223 321.87 357.305C321.87 345.856 330 335.412 341.303 332.399C345.269 331.395 346.856 330.391 344.674 330.391C342.493 330.391 339.32 330.792 337.734 331.596Z" fill="#400000"/>
<path d="M341.304 332.397C330.001 335.41 321.871 345.854 321.871 357.303C321.871 385.422 351.418 397.674 371.843 377.99C379.775 370.358 379.775 370.157 378.982 358.307C378.188 346.256 373.826 338.423 365.497 334.004C359.945 331.192 348.642 330.388 341.304 332.397Z" fill="black"/>
</svg>
