<svg width="700" height="700" viewBox="0 0 700 700" fill="none" xmlns="http://www.w3.org/2000/svg">
<path d="M318.331 171.154C302.055 177.951 291.632 187.496 284.636 201.957C280.781 209.911 280.496 211.646 280.638 227.843C280.638 242.883 281.209 246.642 284.636 256.621C288.348 267.901 292.346 276.288 290.633 269.781C290.204 268.19 288.206 261.972 286.064 256.042C282.78 246.642 282.352 242.883 282.209 227.843C282.209 214.249 282.637 209.621 284.493 206.151C285.778 203.692 286.921 201.234 286.921 200.511C286.921 199.932 289.205 196.172 291.918 192.412C298.2 183.736 309.336 175.926 321.901 171.443C327.469 169.419 330.61 167.828 329.04 167.828C327.469 167.828 322.615 169.419 318.331 171.154ZM215.104 251.849C196.115 256.332 179.125 275.565 171.415 301.451C169.701 306.946 168.702 311.719 169.13 312.152C169.416 312.586 169.987 312.008 170.272 310.851C176.697 287.713 182.979 275.999 194.687 265.008C203.111 257.055 210.964 253.584 223.528 251.849C231.523 250.836 232.094 250.547 226.955 250.547C223.385 250.547 218.102 251.126 215.104 251.849ZM248.371 403.837C237.092 410.49 216.96 431.314 212.106 441.437C201.255 463.997 207.68 490.75 228.525 509.694C236.521 517.07 247.943 525.023 250.37 525.023C251.084 525.023 247.943 522.565 243.231 519.528C220.672 504.633 208.394 485.11 208.394 463.563C208.394 444.474 222.528 423.071 244.516 408.465C260.079 398.197 261.935 396.028 248.371 403.837ZM355.025 461.683C356.453 469.637 363.877 491.618 367.732 499.282C372.301 508.393 382.866 520.107 390.005 523.722C398.143 527.916 398.429 526.903 390.433 522.276C381.581 517.07 375.585 510.707 370.016 500.439C364.734 490.605 358.594 472.963 357.452 463.852C356.881 460.092 356.024 457.055 355.31 457.055C354.596 457.055 354.454 459.224 355.025 461.683Z" fill="#DC3207"/>
<path d="M334.467 167.981C312.765 171.596 290.778 187.504 286.209 202.543C285.638 204.568 284.496 207.026 283.496 208.183C282.64 209.34 281.926 216.715 282.069 226.983C282.069 245.494 283.354 250.989 293.348 275.573C295.775 281.502 297.203 287.865 296.061 287.865C295.49 287.865 290.778 284.395 285.638 280.201C263.079 261.835 256.369 257.93 241.092 253.881C230.098 250.844 216.963 251.712 207.682 255.906C193.833 262.124 179.27 280.49 173.987 298.711C172.274 304.207 170.275 310.28 169.418 312.16C168.562 313.896 167.848 321.705 167.848 329.514C167.848 354.532 176.985 370.873 197.117 381.141C211.252 388.516 226.671 391.119 247.231 389.962C256.512 389.384 264.65 389.239 265.364 389.673C268.505 391.698 264.364 396.181 252.942 402.833C232.668 414.836 214.964 434.503 210.252 450.266C207.968 458.365 208.253 472.103 211.252 481.937C216.963 501.315 243.376 524.019 268.933 531.539C280.213 534.865 295.347 533.997 304.342 529.514C324.616 519.536 338.322 498.278 348.174 461.691C350.744 452.291 355.884 453.737 357.454 464.294C358.882 473.404 365.022 491.047 370.019 500.447C376.158 511.582 383.297 518.668 394.005 524.019C402.429 528.213 404.428 528.647 416.135 528.502C430.556 528.358 440.265 525.465 453.828 517.512C469.391 508.256 489.665 483.961 489.665 474.561C489.665 472.971 490.379 470.078 491.379 468.054C492.664 465.161 492.378 462.125 490.379 453.592C485.667 432.913 473.246 416.861 449.973 401.387C442.264 396.181 434.839 391.119 433.411 389.818C427.843 385.479 433.982 384.612 450.402 387.649C462.681 389.818 486.667 388.806 495.233 385.769C518.078 377.526 533.926 352.074 532.07 326.477C531.07 312.305 524.931 289.311 522.218 289.311C521.504 289.311 521.076 288.588 521.076 287.721C521.076 283.961 509.939 268.198 502.658 261.69C491.521 251.712 482.098 248.241 467.678 249.254C451.401 250.41 435.981 258.798 414.279 278.176C405.284 286.275 400.716 287.287 402.572 280.635C403.286 278.176 404.999 273.549 406.569 270.078C409.282 264.149 411.709 257.93 415.279 247.374C416.278 244.626 417.42 236.961 417.849 230.454C420.847 186.057 385.296 159.449 334.467 167.981ZM362.88 241.011C376.586 245.638 388.294 260.967 388.294 274.272C388.294 281.936 384.439 293.65 377.871 305.364C371.875 316.499 368.734 319.68 367.449 316.354C366.735 314.474 368.448 306.087 370.733 300.013C371.161 298.856 370.733 297.988 369.876 297.988C369.019 297.988 368.305 299.145 368.305 300.447C368.163 304.93 362.737 315.342 360.453 315.342C358.026 315.342 357.74 311.582 359.596 303.484C360.31 300.591 360.453 297.699 359.882 297.265C359.453 296.687 358.454 300.157 357.597 304.785C356.455 311.727 355.741 313.173 353.314 313.173C351.03 313.173 350.458 312.16 350.173 308.111C350.03 305.364 349.887 299.724 349.602 295.819C349.459 289.89 349.173 290.758 348.317 300.591C347.317 312.45 345.747 316.499 342.749 314.763C342.035 314.185 340.892 310.859 340.321 307.388C339.893 303.773 338.751 300.447 338.037 300.013C337.18 299.434 336.895 300.157 337.323 301.748C340.464 313.462 338.894 320.693 334.467 314.619C332.754 312.016 332.611 312.16 332.611 315.776C332.611 323.151 328.899 319.68 322.617 306.52C319.048 299.29 315.764 293.071 315.193 292.782C313.765 291.77 314.907 294.951 321.475 309.413C327.186 322.139 328.043 326.043 325.187 325.176C321.475 324.019 312.194 307.388 307.34 293.505C302.771 280.056 302.486 278.465 304.056 271.669C304.913 267.619 306.912 262.124 308.482 259.521C312.623 252.58 323.331 243.469 330.184 241.011C338.18 238.263 354.742 238.118 362.88 241.011ZM438.837 297.699C452.401 305.508 459.825 319.97 459.968 338.914C459.968 354.966 449.973 369.572 436.267 373.332C424.131 376.658 392.435 370.006 391.435 363.932C390.864 361.618 391.435 361.329 396.004 362.197C398.86 362.775 402.001 362.63 403 362.052C403.999 361.329 402.143 360.606 398.288 360.172C392.292 359.449 391.864 359.16 391.864 355.111C391.864 352.652 391.435 350.049 390.864 349.181C389.294 346.868 391.864 345.132 402.572 340.794C410.567 337.612 410.996 337.179 406.141 338.046C403 338.48 399.002 339.492 397.146 340.071C388.437 343.397 384.725 338.914 392.577 334.431C394.862 333.129 396.861 331.394 396.861 330.816C396.861 330.092 397.575 330.092 398.288 330.526C399.145 330.96 399.716 330.671 399.716 329.948C399.716 327.923 399.859 327.923 392.577 330.526C389.294 331.683 386.01 332.696 385.296 332.696C382.726 332.696 384.154 329.08 388.722 324.163L393.291 319.246L387.866 322.283C381.584 325.899 378.3 326.333 378.3 323.44C378.3 321.416 392.72 307.244 402.143 299.868C413.28 291.191 425.987 290.468 438.837 297.699ZM292.206 302.905C305.627 309.702 324.33 330.092 320.618 333.708C320.047 334.286 318.334 333.997 316.906 332.985C315.193 331.972 314.05 331.828 314.05 332.696C314.05 333.419 314.764 334.142 315.478 334.142C316.335 334.142 316.906 335.443 316.906 337.034C316.906 339.203 315.907 339.926 313.051 339.926C309.624 340.071 309.482 340.215 311.623 341.517C314.907 343.542 314.764 347.157 311.195 347.157C307.911 347.157 307.34 349.326 310.481 350.628C313.051 351.64 313.337 355.4 310.909 356.267C309.91 356.557 306.769 356.701 304.056 356.412C299.487 355.978 299.63 356.123 305.198 357.569C313.051 359.594 312.194 362.197 303.485 362.775C299.63 363.064 297.203 363.787 297.774 364.655C298.202 365.378 300.915 365.667 303.771 365.234C307.768 364.51 308.482 364.655 306.912 365.812C305.198 367.114 305.341 367.403 308.054 367.403C312.765 367.403 311.909 371.597 306.626 373.91C297.774 377.526 279.356 380.707 271.931 379.55C244.661 375.79 230.955 348.892 242.948 322.573C253.228 299.724 271.789 292.348 292.206 302.905ZM358.454 334.431C365.593 336.889 369.876 340.794 373.017 347.591C379.585 362.486 367.734 380.418 351.315 380.418C340.75 380.418 329.756 372.175 327.043 362.341C322.189 344.409 340.464 328.213 358.454 334.431ZM405.713 379.261C420.419 387.215 426.701 392.71 431.841 402.255C439.551 416.571 436.695 432.19 423.845 445.494C415.85 453.882 405.57 458.943 395.29 459.666C376.586 461.112 364.308 450.555 356.741 426.694C355.313 422.356 354.171 419.608 354.171 420.476C354.028 421.488 353.457 422.356 352.6 422.356C351.743 422.356 351.172 418.017 351.172 412.378V402.399L356.169 401.532C359.025 400.953 361.738 400.808 362.452 401.242C363.165 401.676 364.022 400.808 364.45 399.218C365.593 394.735 370.59 395.602 372.589 400.664C373.588 403.122 374.73 404.858 375.016 404.424C375.301 404.135 374.73 401.965 373.588 399.652C369.448 391.264 374.588 389.095 380.441 396.904C385.296 403.267 389.865 405.581 386.01 399.652C384.582 397.338 382.583 394.012 381.584 391.987C378.871 386.781 382.298 386.492 390.007 391.409L396.147 395.313L390.864 389.384C387.866 386.058 385.439 382.732 385.439 382.009C385.439 378.827 388.865 378.972 394.005 382.443C397.146 384.467 399.288 385.335 398.86 384.323C398.574 383.31 396.29 381.286 394.005 379.84C389.436 377.236 388.294 373.187 392.006 373.187C393.291 373.187 399.573 375.935 405.713 379.261ZM312.623 377.815C312.623 378.827 310.338 381.286 307.768 383.31C305.056 385.335 303.199 387.215 303.485 387.504C303.771 387.793 306.341 386.347 309.053 384.178C318.191 377.092 321.903 383.021 313.765 391.553C311.195 394.156 309.91 396.325 310.624 396.325C311.481 396.325 313.622 394.735 315.478 392.71C319.19 388.661 324.045 387.938 324.045 391.264C324.045 392.565 321.475 397.049 318.191 401.387C315.05 405.725 312.623 410.064 312.908 411.076C313.337 412.088 316.192 408.762 319.619 403.845C325.187 395.602 327.9 393.433 330.184 395.747C330.613 396.325 330.184 398.928 329.042 401.532C326.329 408.039 328.614 407.895 331.612 401.387C332.897 398.639 334.61 396.325 335.324 396.325C338.037 396.325 340.036 400.664 339.036 404.568C338.465 407.171 338.608 408.184 339.465 407.171C340.321 406.304 341.178 404.424 341.464 402.833C341.749 400.808 343.034 399.941 345.461 399.941C348.888 399.941 349.031 400.375 349.173 409.341C349.316 414.547 348.888 419.319 348.317 420.187C347.746 420.91 346.746 424.236 346.175 427.273C343.891 440.866 333.754 454.171 321.475 459.955C302.343 469.211 272.217 453.159 266.934 431.033C262.794 413.39 272.36 397.193 295.347 383.31C307.34 376.08 312.623 374.489 312.623 377.815Z" fill="#DC3207"/>
<path d="M330.178 241.006C323.325 243.464 312.617 252.575 308.476 259.516C306.906 262.119 304.907 267.615 304.05 271.664C302.48 278.461 302.765 280.052 307.334 293.501C312.188 307.384 321.469 324.014 325.181 325.171C328.037 326.039 327.18 322.134 321.469 309.408C314.901 294.947 313.759 291.765 315.187 292.778C315.758 293.067 319.042 299.285 322.611 306.516C328.893 319.676 332.605 323.146 332.605 315.771C332.605 312.011 332.748 312.011 334.604 314.759C338.174 319.531 340.03 315.627 338.316 306.805C336.032 294.802 336.889 293.211 339.601 304.491C341.172 311.143 342.6 314.614 344.028 314.614C346.74 314.614 348.025 309.408 348.311 295.814C348.596 280.919 349.596 283.378 350.024 300.153C350.452 312.011 350.738 313.168 353.308 313.168C355.735 313.168 356.449 311.577 357.734 304.057C358.591 299.141 359.876 294.513 360.447 293.934C361.018 293.356 361.161 295.236 360.59 297.984C357.877 311.867 357.877 315.337 360.161 315.337C362.874 315.337 365.872 309.987 368.299 301.021C369.156 297.694 370.298 295.236 370.727 295.67C371.155 296.104 370.441 300.442 369.156 305.359C364.587 321.845 368.871 321.845 377.865 305.359C384.433 293.645 388.288 281.932 388.288 274.267C388.288 260.963 376.581 245.634 362.874 241.006C354.736 238.114 338.174 238.258 330.178 241.006ZM360.447 243.32C375.438 247.224 386.432 261.83 385.147 276.725C384.576 283.522 374.724 307.962 373.154 306.371C372.868 306.082 373.582 301.31 374.724 295.814C377.437 283.088 377.437 279.184 374.867 279.184C372.868 279.184 370.156 285.258 364.73 302.033C361.875 310.854 360.732 311.433 362.588 303.045C364.302 295.525 364.445 275.279 362.731 274.122C360.732 272.966 360.018 274.701 358.305 284.39C357.591 289.018 356.306 295.525 355.735 298.707L354.593 304.491L353.594 295.381C353.022 290.464 352.166 282.51 351.737 277.738C350.024 262.12 345.598 268.193 345.312 286.27C345.312 290.753 344.741 297.55 344.313 301.599L343.314 308.83L341.458 298.707C337.745 277.882 336.46 273.399 334.319 273.399C332.463 273.399 332.32 275.424 333.177 286.559C333.748 293.79 334.462 301.744 334.89 304.202C335.461 308.107 335.175 307.817 332.891 302.322C331.463 298.707 329.179 292.778 327.751 288.873C326.323 285.113 324.324 282.076 323.182 282.076C320.469 282.076 320.612 284.101 324.753 297.984C326.752 304.636 328.322 310.42 328.179 310.854C328.179 311.288 325.181 305.504 321.469 297.984C314.473 283.522 309.761 279.473 309.761 287.427C309.618 291.042 309.476 291.187 308.048 288.728C307.191 287.282 306.62 281.787 306.62 276.725C306.62 268.193 307.048 266.603 312.046 259.372C318.613 249.827 328.322 243.754 339.744 241.874C347.74 240.572 350.167 240.717 360.447 243.32ZM412.132 294.224C405.85 296.538 400.995 300.297 388.003 312.445C375.153 324.303 375.153 329.654 387.86 322.279L393.285 319.242L388.716 324.159C384.148 329.076 382.72 332.691 385.147 332.691C385.861 332.691 390.144 331.389 394.713 329.799C406.421 325.749 407.563 326.328 397.854 331.389C390.001 335.439 386.86 338.909 388.859 340.934C389.288 341.368 394.285 340.789 399.853 339.343C405.421 338.042 410.276 337.174 410.561 337.463C410.847 337.752 407.706 339.054 403.565 340.5C393.571 344.115 389.288 346.863 390.715 349.032C391.286 350.044 391.858 352.648 391.858 355.106C391.858 359.444 391.858 359.444 403.28 361.18L414.702 362.915L402.851 362.337C392.429 361.903 391.001 362.192 391.429 364.217C392.429 370.001 424.553 376.509 436.261 373.327C443.971 371.158 452.966 363.204 456.821 354.817C462.817 341.946 459.962 320.11 450.681 307.962C441.686 295.959 424.125 289.741 412.132 294.224ZM435.69 298.996C442.686 301.888 451.681 312.156 454.536 320.688C460.105 337.029 455.107 363.204 447.112 360.601C445.256 360.023 445.113 360.312 446.541 361.18C448.968 362.915 446.969 364.795 438.117 368.7C430.407 372.315 423.982 372.46 410.704 369.278C399.71 366.675 399.853 366.53 413.988 365.229C425.267 364.217 428.123 362.771 425.553 359.734C424.696 358.432 422.554 357.854 420.698 358.287C418.414 358.721 418.128 358.577 419.556 357.564C420.984 356.408 421.127 355.974 419.699 355.106C418.557 354.383 417.129 354.961 416.129 356.263C413.988 359.3 411.703 359.444 410.704 356.697C410.133 355.251 412.56 354.238 420.127 352.648C427.409 351.346 430.407 350.044 430.407 348.598C430.407 346.14 424.696 345.851 405.85 347.586C399.282 348.165 393.999 348.309 393.999 348.02C393.999 347.875 401.424 344.838 410.418 341.368C425.838 335.583 428.551 333.848 425.696 332.112C424.553 331.389 399.425 336.017 395.141 337.752C393.714 338.331 392.571 338.331 392.571 337.897C392.571 336.885 412.846 326.617 419.842 324.159C425.124 322.279 424.696 318.808 419.128 319.386C416.986 319.676 409.419 321.7 402.423 324.014C395.284 326.473 389.145 328.352 388.716 328.352C387.003 328.352 396.855 321.122 404.422 316.783C415.558 310.42 415.13 305.359 403.851 310.131C400.424 311.577 399.282 307.094 402.28 303.913C410.133 295.525 422.554 293.645 435.69 298.996ZM261.646 300.876C244.512 309.697 234.233 335.439 240.372 354.094C247.082 374.34 265.786 383.306 290.486 378.244C316.043 372.893 318.756 366.241 295.626 365.807C287.345 365.663 289.63 364.65 301.337 363.349C306.192 362.771 310.475 361.614 310.761 360.746C311.046 359.878 308.476 358.432 305.192 357.564C299.481 355.974 299.339 355.974 304.193 356.407C307.048 356.841 310.19 356.552 311.189 355.829C315.187 353.371 310.903 350.045 298.054 345.851C290.772 343.537 285.775 341.512 286.917 341.512C288.059 341.368 293.199 342.669 298.339 344.26C309.904 347.875 314.473 348.02 313.759 344.838C313.473 343.537 308.048 340.066 301.195 336.885C286.774 330.232 287.916 329.365 302.765 335.583C315.044 340.645 316.9 340.789 316.9 337.319C316.9 335.872 312.902 332.257 307.048 328.352C301.623 324.737 297.34 321.7 297.625 321.411C297.768 321.122 302.622 323.869 308.191 327.485C318.613 334.282 321.183 335.294 321.183 332.691C321.183 326.328 304.336 309.119 292.2 302.756C281.92 297.55 269.641 296.827 261.646 300.876ZM291.771 305.793C299.339 309.553 316.9 325.316 316.9 328.352C316.9 329.076 313.616 327.774 309.618 325.316C295.484 316.928 288.059 313.602 286.631 315.048C285.632 316.06 289.487 319.386 297.482 324.737C308.048 331.968 312.617 335.583 310.903 335.583C310.618 335.583 304.193 333.269 296.483 330.522C288.773 327.774 281.492 325.46 280.349 325.46C275.352 325.46 279.921 329.365 292.485 335.872C306.62 343.248 307.191 343.971 296.055 340.789C283.205 337.174 272.639 335.149 271.783 336.017C269.356 338.475 273.924 341.223 289.915 346.429C309.476 352.937 308.333 354.383 286.203 351.201C273.211 349.177 268.356 349.321 268.356 351.491C268.356 353.226 275.067 355.54 286.631 357.564C292.2 358.577 296.911 359.878 296.911 360.457C296.911 361.035 291.486 361.614 284.918 361.614C264.93 361.614 268.071 366.386 289.344 368.266C301.909 369.423 308.905 371.303 302.337 371.881C300.052 372.026 297.482 372.17 296.626 372.315C295.626 372.46 294.341 372.893 293.913 373.616C292.628 375.496 277.637 377.376 271.069 376.509C246.083 373.183 234.09 347.731 245.798 323.002C246.654 321.266 247.939 320.11 248.653 320.543C249.224 320.977 249.795 319.965 249.795 318.374C249.795 314.18 256.648 306.66 263.359 303.479C271.069 299.864 281.349 300.731 291.771 305.793ZM389.716 375.207C389.716 376.364 391.858 378.678 394.57 380.269C397.283 382.004 400.281 384.463 401.281 385.764C403.422 388.367 402.851 388.222 391.572 380.703C388.431 378.678 385.433 379.256 385.433 382.004C385.433 382.727 390.001 388.656 395.713 395.164L405.992 407.167L395.713 397.333C390.001 391.982 384.148 387.644 382.577 387.644C379.008 387.644 379.722 389.669 387.574 402.105C398.14 418.881 397.854 419.025 384.862 402.395C380.293 396.755 375.724 391.982 374.724 391.982C371.726 391.982 371.298 395.164 373.582 399.647C374.724 401.961 375.296 404.13 375.01 404.419C374.724 404.853 373.582 403.118 372.583 400.659C370.584 395.598 365.587 394.73 364.444 399.213C364.016 400.804 363.16 401.672 362.446 401.238C361.732 400.804 359.019 400.948 356.163 401.527L351.166 402.395V412.373C351.166 418.013 351.737 422.351 352.594 422.351C353.451 422.351 354.022 421.484 354.165 420.471C354.165 419.604 355.307 422.351 356.735 426.69C362.16 443.899 370.869 454.889 381.863 458.505C394.856 462.843 412.417 457.348 423.839 445.489C436.689 432.185 439.545 416.567 431.835 402.25C426.695 392.705 420.413 387.21 405.707 379.256C393.856 372.893 389.716 371.881 389.716 375.207ZM409.133 384.318C417.414 388.801 423.982 394.585 423.982 397.333C423.982 398.49 424.553 399.068 425.124 398.635C425.838 398.201 427.98 400.659 429.836 403.985C434.262 412.084 434.405 424.954 430.122 433.197C420.27 451.852 396.141 462.12 380.15 454.166C372.012 450.262 364.587 441.296 365.301 436.379C365.301 435.8 364.873 435.366 364.159 435.366C361.161 435.366 356.306 412.662 357.877 406.444C359.162 401.816 360.304 402.973 363.873 412.518C369.013 426.4 374.011 436.813 375.581 436.813C377.865 436.813 377.009 432.04 372.583 418.591C365.872 398.779 367.728 397.912 378.008 415.699C384.29 426.4 387.574 430.883 388.574 429.871C389.573 428.859 387.717 423.508 382.72 412.807C378.722 404.275 375.724 397.044 376.009 396.755C376.295 396.465 381.149 401.816 386.86 408.902C395.998 420.182 401.138 424.665 401.138 421.484C401.138 421.05 397.854 414.687 393.856 407.601C389.859 400.515 386.86 394.441 387.289 394.007C387.717 393.573 392.429 397.478 397.997 402.684C407.277 411.65 411.132 413.964 411.132 410.927C411.132 410.204 406.706 404.419 401.424 398.201C395.998 391.838 391.144 385.909 390.43 384.752C389.43 383.161 398.425 388.512 411.132 397.189C416.843 401.238 418.271 401.527 418.271 398.635C418.271 397.478 414.273 392.995 409.419 388.512C404.422 384.173 400.852 380.413 401.281 380.413C401.852 380.413 405.279 382.149 409.133 384.318ZM295.341 383.306C272.354 397.188 262.788 413.385 266.928 431.028C272.211 453.154 302.337 469.206 321.469 459.951C338.602 451.852 347.454 435.077 348.596 408.613C349.025 400.515 348.739 399.936 345.741 399.502C344.028 399.213 342.314 399.936 342.029 400.948C341.743 401.961 340.03 407.601 338.316 413.53C334.319 427.413 333.462 426.256 337.174 411.939C339.601 402.828 339.887 400.37 338.316 398.49C337.317 397.333 335.889 396.321 335.175 396.321C334.461 396.321 330.892 402.828 327.323 410.782C323.611 418.736 320.469 424.954 320.184 424.81C319.898 424.52 322.326 418.157 325.324 410.638C328.465 403.262 330.607 396.61 330.321 396.032C328.465 392.995 325.038 395.742 317.899 406.155C313.616 412.228 309.047 418.302 307.62 419.459C304.764 421.917 313.473 407.311 319.898 399.068C322.183 396.176 324.039 392.705 324.039 391.404C324.039 386.921 318.899 389.235 308.333 398.779L297.625 408.324L308.048 397.622C313.616 391.693 318.328 385.764 318.328 384.318C318.328 379.98 314.473 379.979 309.047 384.173C306.335 386.342 303.765 387.789 303.479 387.499C303.194 387.21 305.05 385.33 307.762 383.306C310.332 381.281 312.617 378.823 312.617 377.81C312.617 374.484 307.334 376.075 295.341 383.306ZM294.77 391.549C288.916 397.767 284.062 403.262 284.062 403.841C284.062 406.444 287.631 404.419 299.624 394.875C306.477 389.235 313.045 384.752 313.902 384.752C314.901 384.752 310.475 390.392 304.193 397.333C294.056 408.468 290.201 415.121 293.77 415.121C294.341 415.121 299.339 411.071 304.907 406.01C310.332 401.093 316.043 396.032 317.471 395.019C318.899 393.862 316.043 399.213 311.332 406.878C306.477 414.542 302.622 421.773 302.622 423.074C302.622 425.822 306.049 425.967 308.333 423.074C309.19 421.917 310.761 421.194 311.475 421.339C312.331 421.484 313.188 420.616 313.331 419.314C313.616 417.29 322.326 403.985 325.752 399.936C326.466 399.068 325.752 402.105 324.039 406.444C317.471 423.074 314.33 432.33 315.187 433.053C317.614 435.511 320.041 432.33 326.894 417.579C335.175 399.792 335.175 399.936 336.175 400.948C336.603 401.238 335.033 409.047 332.748 418.157C330.607 427.268 329.036 435.077 329.322 435.8C331.178 439.126 337.888 426.69 342.029 411.939C345.027 400.948 346.883 400.225 345.884 410.348C344.313 429.148 337.745 445.2 329.036 451.997C317.471 460.818 309.19 461.831 294.484 456.335C278.779 450.262 268.356 437.246 268.356 423.653C268.356 416.133 273.782 404.419 280.064 398.201C284.918 393.573 303.194 380.558 305.192 380.413C305.335 380.413 300.766 385.475 294.77 391.549Z" fill="#E6831E"/>
<path d="M339.75 241.873C328.328 243.753 318.619 249.827 312.051 259.372C307.054 266.602 306.626 268.193 306.626 276.725C306.626 281.787 307.197 287.282 308.054 288.728C309.481 291.187 309.624 291.042 309.767 287.427C309.767 279.473 314.479 283.522 321.475 297.983C325.187 305.503 328.185 311.288 328.185 310.854C328.328 310.42 326.757 304.636 324.758 297.983C320.618 284.1 320.475 282.076 323.188 282.076C324.33 282.076 326.329 285.113 327.757 288.873C329.185 292.777 331.469 298.706 332.897 302.322C335.181 307.817 335.467 308.106 334.896 304.202C334.467 301.743 333.753 293.79 333.182 286.559C332.326 275.424 332.468 273.399 334.324 273.399C336.466 273.399 337.751 277.882 341.463 298.706L343.319 308.829L344.319 301.599C344.747 297.549 345.318 290.753 345.318 286.27C345.604 268.193 350.03 262.119 351.743 277.737C352.171 282.51 353.028 290.463 353.599 295.38L354.599 304.491L355.741 298.706C356.312 295.525 357.597 289.017 358.311 284.39C360.024 274.701 360.738 272.965 362.737 274.122C364.45 275.279 364.307 295.525 362.594 303.045C360.738 311.432 361.88 310.854 364.736 302.032C370.161 285.257 372.874 279.184 374.873 279.184C377.443 279.184 377.443 283.088 374.73 295.814C373.588 301.309 372.874 306.082 373.16 306.371C374.73 307.962 384.582 283.522 385.153 276.725C386.438 261.83 375.444 247.224 360.453 243.319C350.173 240.716 347.745 240.572 339.75 241.873ZM416.135 296.393C410.567 297.839 405.284 300.586 402.286 303.913C399.288 307.094 400.43 311.577 403.856 310.131C415.136 305.359 415.564 310.42 404.428 316.783C396.86 321.121 387.009 328.352 388.722 328.352C389.151 328.352 395.29 326.472 402.429 324.014C409.425 321.7 416.992 319.675 419.134 319.386C424.702 318.808 425.13 322.278 419.847 324.158C412.851 326.617 392.577 336.884 392.577 337.897C392.577 338.331 393.719 338.33 395.147 337.752C399.43 336.017 424.559 331.389 425.701 332.112C428.557 333.847 425.844 335.583 410.424 341.367C401.429 344.838 394.005 347.875 394.005 348.02C394.005 348.309 399.288 348.164 405.855 347.586C424.702 345.85 430.413 346.14 430.413 348.598C430.413 350.044 427.415 351.346 420.133 352.647C412.566 354.238 410.139 355.25 410.71 356.696C411.709 359.444 413.994 359.299 416.135 356.263C417.135 354.961 418.562 354.383 419.705 355.106C421.132 355.973 420.99 356.407 419.562 357.564C418.134 358.576 418.42 358.721 420.704 358.287C422.56 357.853 424.702 358.432 425.558 359.733C428.128 362.77 425.273 364.216 413.994 365.229C399.859 366.53 399.716 366.675 410.71 369.278C423.988 372.459 430.413 372.315 438.123 368.699C446.975 364.795 448.974 362.915 446.547 361.179C445.119 360.312 445.262 360.023 447.118 360.601C455.113 363.204 460.11 337.029 454.542 320.688C448.974 304.346 430.698 292.633 416.135 296.393ZM263.365 303.479C256.654 306.66 249.801 314.18 249.801 318.374C249.801 319.965 249.23 320.977 248.659 320.543C245.946 318.952 241.234 333.269 241.234 342.958C241.234 360.167 253.799 374.195 271.075 376.508C277.642 377.376 292.634 375.496 293.919 373.616C294.347 372.893 295.632 372.459 296.632 372.315C297.488 372.17 300.058 372.025 302.343 371.881C308.91 371.302 301.914 369.422 289.35 368.265C268.076 366.386 264.935 361.613 284.924 361.613C291.492 361.613 296.917 361.035 296.917 360.456C296.917 359.878 292.205 358.576 286.637 357.564C275.072 355.54 268.362 353.226 268.362 351.49C268.362 349.321 273.216 349.176 286.209 351.201C308.339 354.383 309.481 352.936 289.921 346.429C273.93 341.223 269.361 338.475 271.788 336.017C272.645 335.149 283.211 337.174 296.06 340.789C307.197 343.97 306.626 343.247 292.491 335.872C279.927 329.364 275.358 325.46 280.355 325.46C281.497 325.46 288.779 327.774 296.489 330.521C304.199 333.269 310.624 335.583 310.909 335.583C312.622 335.583 308.054 331.968 297.488 324.737C289.493 319.386 285.638 316.06 286.637 315.048C288.065 313.602 295.489 316.928 309.624 325.315C313.622 327.774 316.906 329.075 316.906 328.352C316.906 327.484 313.051 323.001 308.339 318.374C293.205 303.189 275.929 297.549 263.365 303.479ZM295.489 386.342C282.211 394.874 274.501 402.828 271.217 411.939C267.791 421.049 267.648 425.532 270.503 434.065C273.645 443.465 282.639 451.852 294.49 456.335C309.196 461.83 317.477 460.818 329.042 451.997C337.751 445.2 344.319 429.148 345.889 410.348C346.889 400.225 345.033 400.948 342.034 411.939C337.894 426.689 331.183 439.126 329.327 435.8C329.042 435.077 330.612 427.268 332.754 418.157C335.038 409.047 336.609 401.237 336.181 400.948C335.181 399.936 335.181 399.791 326.9 417.579C320.047 432.329 317.62 435.511 315.192 433.052C314.336 432.329 317.477 423.074 324.045 406.443C325.758 402.105 326.472 399.068 325.758 399.936C322.331 403.985 313.622 417.289 313.336 419.314C313.194 420.616 312.337 421.483 311.48 421.339C310.766 421.194 309.196 421.917 308.339 423.074C306.055 425.966 302.628 425.822 302.628 423.074C302.628 421.772 306.483 414.542 311.337 406.877C316.049 399.213 318.905 393.862 317.477 395.019C316.049 396.031 310.338 401.093 304.913 406.01C299.344 411.071 294.347 415.12 293.776 415.12C290.207 415.12 294.062 408.468 304.199 397.333C310.481 390.391 314.907 384.751 313.907 384.751C313.051 384.751 306.483 389.234 299.63 394.874C287.637 404.419 284.067 406.443 284.067 403.84C284.067 403.262 288.922 397.767 294.775 391.548C300.772 385.475 305.341 380.413 305.198 380.413C304.913 380.413 300.629 383.161 295.489 386.342ZM409.425 388.511C414.279 392.994 418.277 397.477 418.277 398.634C418.277 401.527 416.849 401.237 411.138 397.188C398.431 388.511 389.436 383.161 390.436 384.751C391.149 385.908 396.004 391.837 401.429 398.2C406.712 404.419 411.138 410.203 411.138 410.926C411.138 413.963 407.283 411.65 398.003 402.683C392.434 397.477 387.723 393.573 387.294 394.007C386.866 394.441 389.864 400.514 393.862 407.6C397.86 414.686 401.144 421.049 401.144 421.483C401.144 424.665 396.004 420.182 386.866 408.902C381.155 401.816 376.301 396.465 376.015 396.754C375.73 397.044 378.728 404.274 382.726 412.806C387.723 423.508 389.579 428.859 388.579 429.871C387.58 430.883 384.296 426.4 378.014 415.699C367.734 397.911 365.878 398.779 372.588 418.591C377.015 432.04 377.871 436.812 375.587 436.812C374.016 436.812 369.019 426.4 363.879 412.517C360.31 402.973 359.168 401.816 357.883 406.443C356.312 412.662 361.166 435.366 364.165 435.366C364.879 435.366 365.307 435.8 365.307 436.378C364.593 441.295 372.017 450.261 380.156 454.166C396.147 462.12 420.276 451.852 430.127 433.197C434.411 424.954 434.268 412.083 429.842 403.985C427.986 400.659 425.844 398.2 425.13 398.634C424.559 399.068 423.988 398.49 423.988 397.333C423.988 394.585 417.42 388.801 409.139 384.318C405.284 382.148 401.858 380.413 401.287 380.413C400.858 380.413 404.428 384.173 409.425 388.511Z" fill="#E6831E"/>
<path d="M341.89 334.858C338.749 336.015 334.037 339.341 331.61 342.234C327.47 347.006 326.898 348.597 326.898 356.116C326.898 364.07 327.327 364.938 332.752 371.012C336.322 374.916 340.891 378.242 344.032 379.11C349.457 380.845 359.023 379.978 360.451 377.664C360.736 376.941 358.595 376.941 355.311 377.664C341.033 380.99 328.326 370.433 328.326 355.538C328.326 345.56 334.751 338.184 345.174 335.871C355.882 333.412 366.019 337.606 370.445 346.138L372.73 350.766L371.873 346.427C370.874 341.8 366.162 337.317 359.166 334.569C353.312 332.4 348.743 332.4 341.89 334.858Z" fill="#800000"/>
<path d="M341.178 336.743C333.04 340.358 328.328 347.299 328.328 355.542C328.328 376.078 351.743 385.911 366.307 371.595C369.019 368.991 371.161 366.388 371.161 365.955C371.161 365.376 368.591 367.401 365.593 370.293C351.03 384.32 329.756 375.354 329.756 355.253C329.756 347.01 335.61 339.49 343.748 337.321C346.603 336.598 347.746 335.875 346.175 335.875C344.605 335.875 342.32 336.164 341.178 336.743Z" fill="#400000"/>
<path d="M343.75 337.319C335.612 339.488 329.758 347.008 329.758 355.251C329.758 375.497 351.031 384.318 365.737 370.146C371.448 364.651 371.448 364.506 370.877 355.974C370.306 347.297 367.165 341.657 361.169 338.476C357.171 336.451 349.033 335.873 343.75 337.319Z" fill="black"/>
</svg>
